<svg width="25" height="25" viewBox="0 0 25 25" fill="none" xmlns="http://www.w3.org/2000/svg">
<path d="M7.95118 20.0734C7.95118 20.8822 7.28942 21.6175 6.40706 21.6175C5.52471 21.6175 4.86295 20.9557 4.86295 20.0734V13.4557C4.86295 12.6469 5.52471 11.9116 6.40706 11.9116C7.28942 11.9116 7.95118 12.5734 7.95118 13.4557V20.0734Z" fill="#F4F4F4"/>
<path d="M12.3629 21.8381C12.3629 22.6469 11.7012 23.3822 10.8188 23.3822C9.93647 23.3822 9.34824 22.7205 9.34824 21.8381V11.7646C9.34824 10.9558 10.01 10.2205 10.8924 10.2205C11.7747 10.2205 12.4365 10.8822 12.4365 11.7646V21.8381H12.3629Z" fill="#F4F4F4"/>
<path d="M3.46589 18.6029C3.46589 19.4117 2.80413 20.147 1.92177 20.147C1.03942 20.147 0.377655 19.4852 0.377655 18.6029V14.9999C0.377655 14.1911 1.03942 13.4558 1.92177 13.4558C2.80413 13.4558 3.46589 14.1911 3.46589 14.9999V18.6029Z" fill="#F4F4F4"/>
<path d="M16.7747 23.4558C16.7747 24.2646 16.113 24.9999 15.2306 24.9999C14.4218 24.9999 13.76 24.2646 13.76 23.4558V10.0734C13.76 9.26459 14.4218 8.5293 15.3041 8.5293C16.113 8.5293 16.8482 9.19106 16.8482 10.0734V23.4558H16.7747Z" fill="#F4F4F4"/>
<path d="M21.6277 22.794C21.3336 22.794 21.113 22.7205 20.8188 22.647L18.9806 22.0588C18.6865 21.9852 18.4659 21.6176 18.613 21.3235C18.6865 21.0293 19.0541 20.8088 19.3483 20.9558L21.26 21.544C21.6277 21.6911 22.0688 21.6176 22.4365 21.3235C22.8041 21.1029 22.9512 20.6617 22.9512 20.294V8.01464C22.9512 7.4264 22.5836 6.9117 22.0688 6.76464L4.05414 1.32346C3.68649 1.1764 3.24532 1.24993 2.87767 1.47052C2.58355 1.76464 2.36296 2.13228 2.36296 2.57346V11.0293C2.36296 11.397 2.06885 11.6176 1.77473 11.6176C1.40708 11.6176 1.18649 11.3235 1.18649 11.0293V2.57346C1.18649 1.76464 1.55414 1.02934 2.2159 0.588167C2.87767 0.0734607 3.68649 -6.87167e-05 4.42179 0.22052L22.363 5.6617C23.3924 5.95581 24.1277 6.98523 24.1277 8.08817V20.3676C24.1277 21.1764 23.76 21.9117 23.0983 22.4264C22.6571 22.5735 22.1424 22.794 21.6277 22.794Z" fill="#F4F4F4"/>
</svg>
