<svg width="26" height="25" viewBox="0 0 26 25" fill="none" xmlns="http://www.w3.org/2000/svg">
<path d="M12.3538 1.15566V2.31604H10.2783V3.07075H12.3538V5.38208H13.1651V3.07075H15.2925V2.31604H13.1651V0H12.3538V1.15566Z" fill="#7099A6"/>
<path d="M5.57077 4.099V5.78296H2.42926V6.83957H5.57077V10.2594H6.73586V6.83957H9.92454V5.78296H6.73586V2.41504H5.57077V4.099Z" fill="#EB912C"/>
<path d="M18.7359 4.099V5.78296H15.5944V6.89145H18.7359V10.2594H19.9481V6.89145H23.0896V5.78296H19.9481V2.41504H18.7359V4.099Z" fill="#59879B"/>
<path d="M12.0519 9.83503V11.7218H8.55664V13.1275H12.0519V16.9011H13.467V13.1275H16.9623V11.7218H13.467V7.94824H12.0519V9.83503Z" fill="#E8762C"/>
<path d="M22.3302 10.7879V11.9718H20.2028V12.9294H22.3302V15.2926H23.3915V12.9294H25.5189V11.9718H23.3915V9.60864H22.3302V10.7879Z" fill="#5B6591"/>
<path d="M2.07547 10.8916V12.0237H0V12.8256H2.07547V15.0897H2.88679V12.8256L5.01415 12.7501V12.0237H2.88679V9.75952H2.07547V10.8916Z" fill="#7099A6"/>
<path d="M5.57077 16.2218V17.9058H2.42926V19.0143H5.57077V22.3822H6.78303V19.0143H9.92454V17.9058H6.78303V14.5378H5.57077V16.2218Z" fill="#C72035"/>
<path d="M18.7359 16.2218V17.9058H15.5944V18.9624H18.7359V22.3822H19.9481V18.9624H23.0896V17.9058H19.9481V14.5378H18.7359V16.2218Z" fill="#1F447E"/>
<path d="M12.2547 20.4999V21.6791H10.1273V22.6367H12.2547V24.9999H13.316V22.6367H15.4434V21.6791H13.316V19.3159H12.2547V20.4999Z" fill="#5B6591"/>
</svg>
