<svg width="26" height="25" viewBox="0 0 26 25" fill="none" xmlns="http://www.w3.org/2000/svg">
<g clip-path="url(#clip0_56_118)">
<path d="M8.95118 20.0734C8.95118 20.8822 8.28942 21.6175 7.40706 21.6175C6.52471 21.6175 5.86295 20.9557 5.86295 20.0734V13.4557C5.86295 12.6469 6.52471 11.9116 7.40706 11.9116C8.28942 11.9116 8.95118 12.5734 8.95118 13.4557V20.0734Z" fill="#F4F4F4"/>
<path d="M13.3629 21.8381C13.3629 22.6469 12.7012 23.3822 11.8188 23.3822C10.9365 23.3822 10.3482 22.7205 10.3482 21.8381V11.7646C10.3482 10.9558 11.01 10.2205 11.8924 10.2205C12.7747 10.2205 13.4365 10.8822 13.4365 11.7646V21.8381H13.3629Z" fill="#F4F4F4"/>
<path d="M4.46589 18.6029C4.46589 19.4117 3.80413 20.147 2.92177 20.147C2.03942 20.147 1.37766 19.4852 1.37766 18.6029V14.9999C1.37766 14.1911 2.03942 13.4558 2.92177 13.4558C3.80413 13.4558 4.46589 14.1911 4.46589 14.9999V18.6029Z" fill="#F4F4F4"/>
<path d="M17.7747 23.4558C17.7747 24.2646 17.113 24.9999 16.2306 24.9999C15.4218 24.9999 14.76 24.2646 14.76 23.4558V10.0734C14.76 9.26459 15.4218 8.5293 16.3041 8.5293C17.113 8.5293 17.8482 9.19106 17.8482 10.0734V23.4558H17.7747Z" fill="#F4F4F4"/>
<path d="M22.6277 22.794C22.3336 22.794 22.113 22.7205 21.8188 22.647L19.9806 22.0588C19.6865 21.9852 19.4659 21.6176 19.613 21.3235C19.6865 21.0293 20.0541 20.8088 20.3483 20.9558L22.26 21.544C22.6277 21.6911 23.0688 21.6176 23.4365 21.3235C23.8041 21.1029 23.9512 20.6617 23.9512 20.294V8.01464C23.9512 7.4264 23.5836 6.9117 23.0688 6.76464L5.05414 1.32346C4.68649 1.1764 4.24532 1.24993 3.87767 1.47052C3.58355 1.76464 3.36296 2.13228 3.36296 2.57346V11.0293C3.36296 11.397 3.06885 11.6176 2.77473 11.6176C2.40708 11.6176 2.18649 11.3235 2.18649 11.0293V2.57346C2.18649 1.76464 2.55414 1.02934 3.2159 0.588167C3.87767 0.0734607 4.68649 -6.87167e-05 5.42179 0.22052L23.363 5.6617C24.3924 5.95581 25.1277 6.98523 25.1277 8.08817V20.3676C25.1277 21.1764 24.76 21.9117 24.0983 22.4264C23.6571 22.5735 23.1424 22.794 22.6277 22.794Z" fill="#F4F4F4"/>
</g>
<defs>
<clipPath id="clip0_56_118">
<rect width="25" height="25" fill="white" transform="translate(0.789429)"/>
</clipPath>
</defs>
</svg>
