<svg width="26" height="25" viewBox="0 0 26 25" fill="none" xmlns="http://www.w3.org/2000/svg">
<g clip-path="url(#clip0_60_48)">
<path d="M4.5406 0H21.1004C23.6111 0 25.641 2.02991 25.641 4.5406V20.4594C25.641 22.9701 23.6111 25 21.1004 25H4.5406C2.02991 25 0 22.9701 0 20.4594V4.5406C0 2.02991 2.02991 0 4.5406 0Z" fill="#001E36"/>
<path d="M5.76923 17.5321V6.53856C5.76923 6.46377 5.80128 6.42104 5.87607 6.42104C6.0577 6.42104 6.22864 6.42104 6.47436 6.41035C6.73077 6.39967 6.99787 6.39967 7.28633 6.38898C7.57479 6.3783 7.88462 6.3783 8.21581 6.36762C8.54701 6.35693 8.86752 6.35693 9.18804 6.35693C10.0641 6.35693 10.7906 6.46377 11.3889 6.68813C11.9231 6.86975 12.4145 7.1689 12.8205 7.5642C13.1624 7.90608 13.4295 8.32275 13.6004 8.78215C13.7607 9.23087 13.8462 9.69027 13.8462 10.171C13.8462 11.0898 13.6325 11.8484 13.2051 12.4467C12.7778 13.045 12.1795 13.4937 11.485 13.7501C10.7585 14.0172 9.95727 14.1133 9.0812 14.1133C8.82479 14.1133 8.65385 14.1133 8.54701 14.1027C8.44017 14.092 8.2906 14.092 8.08761 14.092V17.5215C8.09829 17.5962 8.04487 17.6604 7.97009 17.671C7.9594 17.671 7.94872 17.671 7.92735 17.671H5.89744C5.81197 17.671 5.76923 17.6283 5.76923 17.5321ZM8.09829 8.483V12.0727C8.24787 12.0834 8.38675 12.0941 8.51496 12.0941H9.0812C9.49787 12.0941 9.91453 12.03 10.3098 11.9018C10.6517 11.8057 10.9509 11.6027 11.1859 11.3356C11.4103 11.0685 11.5171 10.7052 11.5171 10.2351C11.5278 9.90394 11.4423 9.57275 11.2714 9.28428C11.0897 9.00651 10.8333 8.79283 10.5235 8.67531C10.1282 8.51505 9.70086 8.45095 9.26282 8.46163C8.98505 8.46163 8.73932 8.46163 8.53633 8.47232C8.32265 8.46163 8.17308 8.47232 8.09829 8.483Z" fill="#31A8FF"/>
<path d="M20.5128 11.4211C20.1923 11.2502 19.8504 11.1327 19.4872 11.0579C19.0919 10.9724 18.6966 10.919 18.2906 10.919C18.0769 10.9083 17.8526 10.9404 17.6496 10.9938C17.5107 11.0258 17.3932 11.1006 17.3184 11.2074C17.265 11.2929 17.2329 11.3998 17.2329 11.4959C17.2329 11.5921 17.2756 11.6882 17.3397 11.7737C17.4359 11.8912 17.5641 11.9874 17.703 12.0621C17.9487 12.1904 18.2051 12.3079 18.4615 12.4147C19.0385 12.607 19.594 12.8741 20.1068 13.1946C20.4594 13.419 20.7479 13.7181 20.9509 14.0814C21.1218 14.4233 21.2073 14.7972 21.1966 15.1818C21.2073 15.6839 21.0577 16.1861 20.7799 16.6027C20.4808 17.0301 20.0641 17.3613 19.5833 17.5536C19.0598 17.778 18.4188 17.8955 17.6496 17.8955C17.1581 17.8955 16.6774 17.8527 16.1966 17.7566C15.8227 17.6925 15.4487 17.575 15.1068 17.4147C15.0321 17.372 14.9786 17.2972 14.9893 17.2117V15.3527C14.9893 15.3207 15 15.278 15.0321 15.2566C15.0641 15.2352 15.0962 15.2459 15.1282 15.2673C15.5449 15.513 15.9829 15.6839 16.453 15.7908C16.859 15.8976 17.2863 15.951 17.7137 15.951C18.1197 15.951 18.4081 15.8976 18.6004 15.8015C18.7714 15.7267 18.8889 15.5451 18.8889 15.3527C18.8889 15.2032 18.8034 15.0643 18.6325 14.9254C18.4615 14.7865 18.109 14.6262 17.5855 14.4233C17.0406 14.231 16.5385 13.9745 16.0684 13.654C15.7372 13.419 15.4594 13.1092 15.2564 12.7459C15.0855 12.404 15 12.0301 15.0107 11.6562C15.0107 11.1968 15.1389 10.7587 15.3739 10.3634C15.641 9.93608 16.0363 9.5942 16.4957 9.38052C16.9979 9.12411 17.6282 9.00659 18.3868 9.00659C18.8248 9.00659 19.2735 9.03864 19.7115 9.10274C20.0321 9.14548 20.3419 9.23095 20.6303 9.34847C20.6731 9.35916 20.7158 9.40189 20.7372 9.44463C20.7479 9.48736 20.7586 9.5301 20.7586 9.57283V11.3143C20.7586 11.357 20.7372 11.3998 20.7051 11.4211C20.609 11.4425 20.5556 11.4425 20.5128 11.4211Z" fill="#31A8FF"/>
</g>
<defs>
<clipPath id="clip0_60_48">
<rect width="25.641" height="25" fill="white"/>
</clipPath>
</defs>
</svg>
