<svg width="27" height="25" viewBox="0 0 27 25" fill="none" xmlns="http://www.w3.org/2000/svg">
<g clip-path="url(#clip0_60_45)">
<path d="M5.18162 0H21.7414C24.2521 0 26.282 2.02991 26.282 4.5406V20.4594C26.282 22.9701 24.2521 25 21.7414 25H5.18162C2.67094 25 0.641022 22.9701 0.641022 20.4594V4.5406C0.641022 2.02991 2.67094 0 5.18162 0Z" fill="#330000"/>
<path d="M13.0342 14.9573H9.05983L8.24787 17.468C8.2265 17.5642 8.14103 17.6283 8.04488 17.6176H6.03633C5.91881 17.6176 5.88676 17.5535 5.91881 17.4253L9.35898 7.52142C9.39103 7.41458 9.42308 7.29706 9.46582 7.16885C9.50855 6.94449 9.52992 6.70945 9.52992 6.47441C9.51924 6.42099 9.56197 6.36757 9.61539 6.35689H12.3825C12.468 6.35689 12.5107 6.38894 12.5214 6.44236L16.4209 17.4466C16.453 17.5642 16.4209 17.6176 16.3141 17.6176H14.0812C14.0064 17.6283 13.9316 17.5748 13.9103 17.5L13.0342 14.9573ZM9.67949 12.7885H12.3932C12.3291 12.5642 12.2436 12.2971 12.1474 12.0193C12.0513 11.7308 11.9551 11.421 11.859 11.1005C11.7521 10.7693 11.656 10.4488 11.5492 10.1176C11.4423 9.78637 11.3462 9.47655 11.2607 9.16672C11.1752 8.86757 11.1004 8.58979 11.0256 8.33338H11.0043C10.9081 8.79278 10.7906 9.25219 10.641 9.71159C10.4808 10.2244 10.3205 10.7586 10.1496 11.2928C10 11.8377 9.83975 12.3398 9.67949 12.7885ZM18.8034 8.22655C18.4509 8.23723 18.109 8.09834 17.8526 7.85261C17.6068 7.58552 17.4786 7.23296 17.4893 6.86971C17.4786 6.50646 17.6175 6.16458 17.8739 5.91885C18.1303 5.67313 18.4722 5.54492 18.8248 5.54492C19.2415 5.54492 19.562 5.67313 19.797 5.91885C20.0321 6.17526 20.1603 6.51714 20.1496 6.86971C20.1603 7.23296 20.0321 7.58552 19.7756 7.85261C19.5299 8.10902 19.1667 8.24791 18.8034 8.22655ZM17.6068 17.5V9.27355C17.6068 9.16672 17.6496 9.12398 17.7457 9.12398H19.8611C19.9573 9.12398 20 9.1774 20 9.27355V17.5C20 17.6176 19.9573 17.671 19.8611 17.671H17.7671C17.6603 17.671 17.6068 17.6069 17.6068 17.5Z" fill="#FF9A00"/>
</g>
<defs>
<clipPath id="clip0_60_45">
<rect width="25.641" height="25" fill="white" transform="translate(0.641022)"/>
</clipPath>
</defs>
</svg>
