<svg width="56" height="56" viewBox="0 0 56 56" fill="none" xmlns="http://www.w3.org/2000/svg">
<g filter="url(#filter0_b_86_259)">
<rect x="0.612701" y="0.190918" width="55" height="54.9998" rx="27.4999" fill="#F4F4F4"/>
<path d="M26.0684 15.6255C26.9704 14.0252 29.2748 14.0252 30.1768 15.6255L32.5823 19.8933C32.9187 20.4902 33.4983 20.9113 34.17 21.0469L38.9722 22.0158C40.7729 22.3791 41.485 24.5707 40.2418 25.923L36.9263 29.5296C36.4625 30.0341 36.2411 30.7154 36.3197 31.3962L36.8822 36.2628C37.0931 38.0876 35.2289 39.4421 33.5585 38.6776L29.1039 36.6388C28.4808 36.3537 27.7644 36.3537 27.1413 36.6388L22.6866 38.6776C21.0164 39.4421 19.1521 38.0876 19.363 36.2628L19.9254 31.3962C20.0041 30.7154 19.7827 30.0341 19.3189 29.5296L16.0034 25.923C14.7602 24.5707 15.4723 22.3791 17.2729 22.0158L22.0751 21.0469C22.7469 20.9113 23.3264 20.4902 23.6629 19.8933L26.0684 15.6255Z" stroke="#1D4CF2" stroke-width="3" stroke-linecap="round" stroke-linejoin="round"/>
<path d="M27.4179 22.6632C27.7273 22.1142 28.5179 22.1142 28.8273 22.6632L29.9366 24.6313C30.052 24.8361 30.2509 24.9806 30.4814 25.027L32.6959 25.4739C33.3136 25.5985 33.558 26.3504 33.1314 26.8144L31.6025 28.4776C31.4433 28.6506 31.3674 28.8844 31.3944 29.1179L31.6537 31.3622C31.7261 31.9882 31.0865 32.4529 30.5135 32.1906L28.4592 31.2504C28.2454 31.1526 27.9997 31.1526 27.7859 31.2504L25.7317 32.1906C25.1587 32.4529 24.519 31.9882 24.5914 31.3622L24.8508 29.1179C24.8777 28.8844 24.8018 28.6506 24.6427 28.4776L23.1137 26.8144C22.6872 26.3504 22.9315 25.5985 23.5493 25.4739L25.7638 25.027C25.9943 24.9806 26.1931 24.8361 26.3086 24.6313L27.4179 22.6632Z" fill="#CA0088" stroke="#CA0088" stroke-width="1.77778" stroke-linecap="round" stroke-linejoin="round"/>
</g>
<defs>
<filter id="filter0_b_86_259" x="-39.3873" y="-39.8091" width="135" height="135" filterUnits="userSpaceOnUse" color-interpolation-filters="sRGB">
<feFlood flood-opacity="0" result="BackgroundImageFix"/>
<feGaussianBlur in="BackgroundImageFix" stdDeviation="20"/>
<feComposite in2="SourceAlpha" operator="in" result="effect1_backgroundBlur_86_259"/>
<feBlend mode="normal" in="SourceGraphic" in2="effect1_backgroundBlur_86_259" result="shape"/>
</filter>
</defs>
</svg>
