<svg width="17" height="25" viewBox="0 0 17 25" fill="none" xmlns="http://www.w3.org/2000/svg">
<g clip-path="url(#clip0_60_39)">
<path d="M4.1675 25.0001C6.46704 25.0001 8.33333 23.1334 8.33333 20.8334V16.6667H4.1675C1.86796 16.6667 0.00166321 18.5334 0.00166321 20.8334C0.00166321 23.1334 1.86796 25.0001 4.1675 25.0001Z" fill="#0ACF83"/>
<path d="M0.00166321 12.4999C0.00166321 10.1999 1.86796 8.33325 4.1675 8.33325H8.33333V16.6666H4.1675C1.86796 16.6666 0.00166321 14.7999 0.00166321 12.4999Z" fill="#A259FF"/>
<path d="M0.00166321 4.16667C0.00166321 1.86667 1.86796 0 4.1675 0H8.33333V8.33333H4.1675C1.86796 8.33333 0.00166321 6.46667 0.00166321 4.16667Z" fill="#F24E1E"/>
<path d="M8.33334 0H12.4992C14.7987 0 16.665 1.86667 16.665 4.16667C16.665 6.46667 14.7987 8.33333 12.4992 8.33333H8.33334V0Z" fill="#FF7262"/>
<path d="M16.665 12.4999C16.665 14.7999 14.7987 16.6666 12.4992 16.6666C10.1996 16.6666 8.33334 14.7999 8.33334 12.4999C8.33334 10.1999 10.1996 8.33325 12.4992 8.33325C14.7987 8.33325 16.665 10.1999 16.665 12.4999Z" fill="#1ABCFE"/>
</g>
<defs>
<clipPath id="clip0_60_39">
<rect width="16.6667" height="25" fill="white"/>
</clipPath>
</defs>
</svg>
