<svg width="30" height="30" viewBox="0 0 30 30" fill="none" xmlns="http://www.w3.org/2000/svg">
<path d="M18.5352 11.4272H11.4641V18.4983H18.5352V11.4272Z" fill="#7C5CFC"/>
<path opacity="0.4" d="M8.81247 23.8018C10.2709 23.8018 11.4641 22.6086 11.4641 21.1502V18.4985H8.81247C7.35407 18.4985 6.16083 19.6918 6.16083 21.1502C6.16083 22.6086 7.35407 23.8018 8.81247 23.8018Z" fill="#7C5CFC"/>
<path opacity="0.4" d="M8.81247 11.4273H11.4641V8.77566C11.4641 7.31726 10.2709 6.12402 8.81247 6.12402C7.35407 6.12402 6.16083 7.31726 6.16083 8.77566C6.16083 10.2341 7.35407 11.4273 8.81247 11.4273Z" fill="#7C5CFC"/>
<path opacity="0.4" d="M18.5352 11.4273H21.1868C22.6452 11.4273 23.8384 10.2341 23.8384 8.77566C23.8384 7.31726 22.6452 6.12402 21.1868 6.12402C19.7284 6.12402 18.5352 7.31726 18.5352 8.77566V11.4273Z" fill="#7C5CFC"/>
<path opacity="0.4" d="M21.1868 23.8018C22.6452 23.8018 23.8384 22.6086 23.8384 21.1502C23.8384 19.6918 22.6452 18.4985 21.1868 18.4985H18.5352V21.1502C18.5352 22.6086 19.7284 23.8018 21.1868 23.8018Z" fill="#7C5CFC"/>
<path d="M20 15L15 10L10 15L15 20L20 15Z" fill="#7C5CFC"/>
<path opacity="0.4" d="M4.37504 16.875C5.40628 17.9062 7.09378 17.9062 8.12502 16.875L10 15L8.12502 13.125C7.09378 12.0937 5.40628 12.0937 4.37504 13.125C3.34379 14.1562 3.34379 15.8437 4.37504 16.875Z" fill="#7C5CFC"/>
<path opacity="0.4" d="M13.125 8.12498L15 9.99997L16.875 8.12498C17.9062 7.09373 17.9062 5.40624 16.875 4.37499C15.8437 3.34375 14.1563 3.34375 13.125 4.37499C12.0938 5.40624 12.0938 7.09373 13.125 8.12498Z" fill="#7C5CFC"/>
<path opacity="0.4" d="M20 15L21.875 16.875C22.9062 17.9062 24.5937 17.9062 25.625 16.875C26.6562 15.8437 26.6562 14.1562 25.625 13.125C24.5937 12.0937 22.9062 12.0937 21.875 13.125L20 15Z" fill="#7C5CFC"/>
<path opacity="0.4" d="M13.125 25.625C14.1563 26.6562 15.8437 26.6562 16.875 25.625C17.9062 24.5937 17.9062 22.9062 16.875 21.875L15 20L13.125 21.875C12.0938 22.9062 12.0938 24.5937 13.125 25.625Z" fill="#7C5CFC"/>
</svg>
