<svg width="56" height="56" viewBox="0 0 56 56" fill="none" xmlns="http://www.w3.org/2000/svg">
<g filter="url(#filter0_b_86_273)">
<rect x="0.612976" y="0.190918" width="55.0002" height="55" rx="27.5" fill="#F4F4F4"/>
<path d="M18.2979 27.7005C18.2979 27.0494 17.7701 26.5215 17.1189 26.5215C16.4678 26.5215 15.9399 27.0494 15.9399 27.7005H18.2979ZM17.1189 33.2025H15.9399C15.9399 33.5367 16.0818 33.8552 16.3302 34.0788L17.1189 33.2025ZM39.9129 33.2025L40.6203 34.1457C40.9172 33.923 41.0919 33.5735 41.0919 33.2025H39.9129ZM41.0919 27.7005C41.0919 27.0494 40.564 26.5215 39.9129 26.5215C39.2618 26.5215 38.7339 27.0494 38.7339 27.7005H41.0919ZM15.9399 27.7005V33.2025H18.2979V27.7005H15.9399ZM41.0919 33.2025V27.7005H38.7339V33.2025H41.0919ZM17.1189 33.2025C16.3302 34.0788 16.3306 34.0792 16.331 34.0796C16.3312 34.0797 16.3316 34.08 16.332 34.0804C16.3326 34.0809 16.3333 34.0815 16.334 34.0822C16.3355 34.0836 16.3373 34.0852 16.3393 34.0869C16.3433 34.0905 16.3483 34.0949 16.3542 34.1001C16.3662 34.1105 16.382 34.1242 16.4017 34.141C16.4411 34.1744 16.4961 34.2201 16.5665 34.2762C16.7073 34.3885 16.9097 34.5426 17.1724 34.7245C17.6976 35.0881 18.4653 35.5637 19.4635 36.0365C21.4617 36.983 24.3844 37.9185 28.1229 37.9185V35.5605C24.7875 35.5605 22.2082 34.7275 20.4729 33.9055C19.6043 33.494 18.9474 33.0854 18.5146 32.7857C18.2984 32.6361 18.1385 32.5139 18.0367 32.4327C17.9858 32.3921 17.9495 32.3618 17.9279 32.3435C17.9171 32.3343 17.91 32.3281 17.9066 32.3251C17.9049 32.3236 17.9042 32.323 17.9043 32.3232C17.9044 32.3233 17.9047 32.3235 17.9053 32.324C17.9056 32.3243 17.9059 32.3246 17.9063 32.3249C17.9065 32.3251 17.9068 32.3254 17.9069 32.3255C17.9073 32.3258 17.9076 32.3262 17.1189 33.2025ZM28.1229 37.9185C31.8563 37.9185 34.9632 36.9855 37.1351 36.0546C38.2222 35.5887 39.0803 35.1212 39.6721 34.7661C39.9682 34.5884 40.1982 34.4385 40.3577 34.3305C40.4374 34.2765 40.4996 34.233 40.5435 34.2016C40.5654 34.1859 40.5829 34.1733 40.5957 34.1638C40.6021 34.1591 40.6074 34.1553 40.6115 34.1522C40.6135 34.1507 40.6153 34.1494 40.6168 34.1483C40.6175 34.1478 40.6182 34.1472 40.6187 34.1469C40.619 34.1466 40.6194 34.1463 40.6196 34.1462C40.62 34.1459 40.6203 34.1457 39.9129 33.2025C39.2055 32.2593 39.2058 32.259 39.2061 32.2588C39.2062 32.2587 39.2064 32.2586 39.2066 32.2584C39.2069 32.2583 39.2072 32.258 39.2073 32.2579C39.2076 32.2577 39.2076 32.2576 39.2074 32.2579C39.2069 32.2582 39.2053 32.2594 39.2026 32.2614C39.1972 32.2654 39.1872 32.2726 39.173 32.2828C39.1444 32.3032 39.0982 32.3357 39.0352 32.3784C38.9091 32.4638 38.7154 32.5902 38.4589 32.7442C37.9454 33.0523 37.1823 33.469 36.2062 33.8873C34.2517 34.725 31.4635 35.5605 28.1229 35.5605V37.9185Z" fill="#1D4CF2"/>
<path d="M19.2454 37.6056L19.7828 35.7783C20.039 34.9072 21.2729 34.9072 21.529 35.7783L22.0665 37.6056C22.3435 38.5473 21.6375 39.4907 20.6559 39.4907C19.6744 39.4907 18.9684 38.5473 19.2454 37.6056Z" fill="#CA0088" stroke="#CA0088" stroke-width="2" stroke-linecap="round" stroke-linejoin="round"/>
<path d="M20.6559 28.8799V35.1679" stroke="#CA0088" stroke-width="2" stroke-linecap="round" stroke-linejoin="round"/>
<path d="M13.8976 24.2395L26.4367 18.2834C27.5037 17.7766 28.7421 17.7766 29.8091 18.2834L42.3482 24.2395C42.9465 24.5237 42.9465 25.3753 42.3482 25.6595L29.8091 31.6155C28.7421 32.1224 27.5037 32.1224 26.4367 31.6155L13.8976 25.6595C13.2993 25.3753 13.2993 24.5237 13.8976 24.2395Z" stroke="#1D4CF2" stroke-width="3" stroke-linecap="round" stroke-linejoin="round"/>
</g>
<defs>
<filter id="filter0_b_86_273" x="-39.387" y="-39.8091" width="135" height="135" filterUnits="userSpaceOnUse" color-interpolation-filters="sRGB">
<feFlood flood-opacity="0" result="BackgroundImageFix"/>
<feGaussianBlur in="BackgroundImageFix" stdDeviation="20"/>
<feComposite in2="SourceAlpha" operator="in" result="effect1_backgroundBlur_86_273"/>
<feBlend mode="normal" in="SourceGraphic" in2="effect1_backgroundBlur_86_273" result="shape"/>
</filter>
</defs>
</svg>
