<svg width="1121" height="859" viewBox="0 0 1121 859" fill="none" xmlns="http://www.w3.org/2000/svg">
<g clip-path="url(#clip0_9_59)">
<path fill-rule="evenodd" clip-rule="evenodd" d="M661.784 371.801L663.576 371.44L664.652 370.719L665.727 370.358L666.086 369.997L666.444 369.637L667.52 368.194L667.878 367.834L668.237 367.473L668.954 367.113L670.388 367.473L672.539 367.834L673.973 368.194L674.69 367.834L676.482 366.752H677.199H677.558L678.275 367.113L679.35 368.194L679.709 368.916L680.067 369.637L680.426 370.719L681.143 374.686L681.501 377.21L681.859 377.931L682.218 378.292L682.576 379.013L683.652 379.734L684.369 380.455L684.727 381.177L685.086 382.259V383.34L685.444 383.701L688.312 384.062L699.426 382.259L703.011 382.619L743.162 379.374L742.445 397.044L741.37 398.847L740.653 401.372L735.275 402.453L724.162 406.06L721.294 409.666L715.917 440.319L715.2 442.122L714.483 443.925L713.049 444.646L707.671 445.728L705.879 446.089L705.162 447.531L704.803 449.334L703.011 460.874L702.652 462.677L701.935 464.48L700.501 465.202H699.067L694.407 464.841L705.162 509.919L706.954 514.967L728.464 537.686L732.049 542.735L738.86 556.799L739.577 559.324L738.86 560.406L737.068 561.127L733.483 561.487L732.049 561.848L731.69 562.569V564.012L735.992 576.273L736.709 579.518L735.992 580.6L734.2 581.322H732.407L731.69 584.567V590.337L738.143 615.22L738.502 615.581L738.86 615.941L740.294 616.302H741.011L742.804 615.941L744.596 616.302L746.389 615.941L754.276 616.302L755.351 616.662L756.068 617.023H756.427L756.785 617.744L757.861 618.826L762.163 626.76H762.521H762.88L763.597 626.039L764.672 625.317L767.54 624.596L767.899 624.236H770.408L774.352 624.957L775.785 625.678L776.144 626.039L776.503 626.76L776.861 627.12L777.219 627.842L777.578 628.563V629.645V631.087V631.809L777.219 632.89L776.503 634.694L775.785 636.136L774.71 637.579L773.993 638.3L771.842 639.742L769.691 640.103L768.616 640.464H767.182H765.748L764.672 640.103L764.314 639.742L763.238 639.382L762.521 638.66L761.446 637.579L761.087 636.497V631.087L760.37 628.924L759.653 626.399L757.502 622.432L756.427 620.629L754.634 619.187L753.917 618.826L753.2 618.466L749.615 617.744H748.181L746.389 618.105L742.445 618.466H741.728L741.37 618.826V619.547L757.502 645.873L760.729 650.922L780.804 684.82L784.748 694.557L785.106 725.931L785.465 758.387L785.823 763.796L786.899 764.517L787.974 764.878L791.918 765.238L792.276 765.96L792.635 771.369L792.276 771.73V772.09L791.918 772.451L791.201 773.172H790.484L790.125 773.533L789.408 774.254L789.05 774.615H788.691L787.974 774.975L786.899 775.336H784.389L782.597 775.697L781.88 776.057L781.521 776.418L780.804 777.86V778.581V779.303L782.238 782.188L782.955 782.909L784.031 784.351L785.465 785.433L788.691 789.4L790.125 790.121L790.484 790.482L790.842 791.203V791.564L790.484 791.924L788.691 793.728L787.974 794.449V795.17L787.616 795.531L786.899 803.464V804.907L786.54 805.989L783.672 809.234L782.955 809.956L780.087 811.759L779.37 812.48L778.295 813.922L777.219 815.004L776.861 814.644L775.785 814.283L775.068 813.922L774.71 813.562L773.993 812.48V812.119L774.352 811.037V810.677L772.918 809.234H772.559L771.484 808.152L772.201 807.071V806.71L771.484 805.989L770.767 805.628H770.05L765.748 806.71L764.314 807.071L762.163 803.825L761.087 801.301V798.416L761.446 798.055L762.521 796.612L762.88 795.891L762.521 794.088L762.88 793.367L763.238 790.843V789.761L762.88 789.039L763.238 786.515V785.073L762.88 783.27L762.521 779.663L761.804 777.5L761.087 775.697L760.37 774.254L758.936 772.451L757.502 771.008L755.71 770.287L753.559 769.927L752.483 769.205L753.2 768.123L754.993 766.681L756.068 765.599V764.517V762.353V760.911L756.785 760.55L757.502 760.19L758.219 759.829L758.578 758.387V757.665L758.936 756.584V755.502L759.295 754.78L760.37 753.699V752.977V752.256L760.012 749.01L758.936 742.519L757.502 740.356V739.274L757.144 736.749V735.668L756.785 734.586L756.427 733.864L756.068 733.143L755.351 732.783L754.276 732.422L754.634 731.34L754.993 730.619L753.917 727.734L754.276 722.325L756.068 713.67L755.71 712.227L755.351 710.785L755.71 709.703L756.427 708.982L756.785 707.9L757.144 706.457L757.502 705.375L757.144 703.933L756.785 702.851L756.068 701.048L755.351 697.442L751.766 697.081L747.464 696.36H738.86L728.464 696.72L710.181 697.081H697.992L684.369 697.442L681.501 695.639L679.709 692.754L677.199 685.902L675.407 683.017L666.086 671.838L662.142 665.707L658.916 658.495L656.406 655.249L653.18 653.806L646.01 652.364L642.783 650.561L637.047 645.873L624.859 641.545H623.783L623.066 641.906L621.991 643.709L621.274 644.43H620.557L619.481 643.709L618.764 641.906L618.406 639.742L617.689 637.939L616.255 636.497L615.179 636.136L612.311 637.218H611.594L610.877 636.857L610.16 636.497L609.443 635.775L608.009 635.415V634.694V633.612L608.368 632.89V632.53L608.726 632.169V631.809L608.368 631.087L606.575 629.284L601.198 624.596L600.122 623.154L598.688 615.581L598.33 613.417L598.688 611.974L599.047 610.893L599.405 610.171V609.089L598.688 608.008L599.047 605.483L598.688 604.041L596.896 601.877L595.103 600.074L593.311 599.353L588.292 601.877L586.5 601.516L575.028 593.222L572.16 590.337L571.084 589.616L568.575 589.255L567.499 588.895L566.424 588.173L562.839 586.37L556.027 584.928L551.008 582.043L550.65 582.764L550.291 584.567L549.216 586.01H548.14L547.423 586.37L545.631 586.01H544.555L543.839 586.37L543.48 587.092L542.763 587.452L540.612 587.813L538.82 587.452L534.876 586.01L530.574 582.043L529.14 581.322H527.706L526.272 582.403L525.197 583.846L524.48 585.649L523.404 587.452L521.612 588.173L514.083 588.895H512.649L510.498 587.092L509.423 586.731L502.611 585.649L501.178 584.928L499.743 583.846L499.385 582.403V580.961L499.027 579.158L498.668 578.076L497.234 575.552V574.83L497.593 574.109V573.027L496.876 572.306L495.442 571.585L494.008 571.224H491.14L485.404 569.782L471.781 563.29L468.913 562.569H467.479L466.045 562.93H464.611L463.177 562.569L462.818 561.848L461.743 560.045L461.384 559.324H460.667L459.233 559.684H458.875H458.516L457.441 558.963L456.366 557.881L454.932 557.16H453.856L452.422 557.521H448.12L443.818 556.439L442.384 556.078L440.95 556.439L439.516 556.799H438.082L425.893 552.111L423.742 548.866L425.176 543.096L425.535 541.293L425.176 539.49L423.384 536.605L422.308 533.359L419.44 530.474L418.365 528.671L416.931 525.065L414.78 521.458L414.421 520.737V519.655L414.063 518.934L413.346 518.573L411.553 517.852H410.478H409.402L407.969 518.573L407.252 519.295L399.723 512.082L391.478 506.312L390.044 504.87L388.251 501.985L387.893 501.264L386.817 497.657L386.459 496.936L385.742 496.576L384.308 496.936L381.798 498.018H381.081H380.364L378.93 497.297L377.855 496.936L376.779 496.576L374.987 496.936L370.685 498.379H369.609L368.175 497.657L363.515 495.494L362.081 494.772H361.006H360.647H360.289L359.572 494.412L359.213 494.051L358.496 493.33V492.609L358.138 490.806L359.213 480.708V479.626L359.572 478.905L360.289 478.184L361.006 477.823L362.44 477.102L362.798 476.741L363.157 476.02V474.938L362.798 472.414L363.157 471.693L363.515 470.611L366.024 466.283L366.383 465.562V464.48L366.741 463.038L367.1 460.153L393.27 373.604L393.987 372.161L394.346 371.801L396.497 370.719L402.233 368.555L402.95 367.834L403.667 367.113L404.384 366.391L404.025 364.949L396.855 337.181L395.78 330.329L395.421 329.247L394.346 327.444L393.987 326.362V325.641V324.559V323.838L394.704 323.117L399.365 319.51L409.761 314.101L410.12 315.544L410.478 315.904L410.836 316.265L411.195 316.626L414.421 317.347L415.138 317.707L415.497 318.068L416.214 318.789L416.931 319.51L417.289 319.871L417.648 320.232L418.006 320.592L418.723 320.953H419.44L424.818 320.232L425.535 319.871L426.252 319.51L429.478 316.265L431.271 315.183L436.648 313.019L471.781 313.38L481.819 312.298L502.97 305.807L512.291 306.889L514.083 306.528L514.442 306.168V305.446V302.561V301.84V301.479L514.8 300.758L515.159 300.398H515.517L516.234 300.037L523.046 300.398L528.782 301.84L532.725 303.283L567.141 311.937L571.443 318.068L572.518 319.15L577.537 322.756L584.349 324.199L605.858 324.559H653.18H654.255L654.614 325.28L654.972 326.362V362.785V364.228L655.689 365.309L660.708 371.079L661.067 371.44L661.784 371.801Z" fill="url(#paint0_linear_9_59)" stroke="#1C104F" stroke-linecap="round" stroke-linejoin="round"/>
<path fill-rule="evenodd" clip-rule="evenodd" d="M843.9 266.86L844.258 267.581L846.051 269.024L849.994 270.466L857.164 274.433L858.24 275.515V280.203L858.957 282.367L861.108 287.055L861.825 289.218L862.183 291.382V294.267L862.542 296.791L865.409 302.561V304.725L865.051 306.889L864.334 309.052L863.976 311.577L864.334 314.101L865.768 320.592L866.843 323.477L872.938 331.411L874.013 331.772L878.674 337.181L889.07 344.393L900.901 352.688L914.882 362.785L943.203 383.34L955.392 391.995L960.769 397.405L970.09 410.387L975.468 415.796L984.789 422.648L996.978 431.664L1010.96 441.401L1013.47 442.843L1015.98 443.564L1018.13 442.843L1024.94 439.597L1027.45 439.237L1029.6 440.679L1032.11 443.925L1037.13 450.416L1055.41 465.923L1066.53 472.414L1079.07 476.741L1085.17 480.708L1096.64 491.166L1104.53 498.739L1116.36 506.673L1124.96 512.443L1139.3 522.18L1145.04 523.983L1150.77 523.622L1153.28 522.18L1157.23 518.934L1159.73 517.852L1162.6 518.213L1171.57 522.54L1177.3 523.262L1179.45 524.704L1184.83 529.031L1190.57 530.474L1193.43 531.916L1195.94 534.441L1199.89 539.49L1208.85 543.817L1211.36 544.538H1217.81L1221.4 545.259L1224.26 547.063L1227.49 548.866V549.226L1228.57 552.111L1229.28 554.275L1226.06 560.766L1221.4 566.897L1218.17 572.306L1217.81 576.634L1218.53 585.288L1218.17 589.616L1216.38 597.189L1216.02 600.795L1217.09 604.041L1218.89 605.483L1220.32 606.926L1220.68 608.729L1219.25 610.893L1217.81 612.696L1216.38 614.499L1216.02 616.662L1218.17 618.105L1216.74 619.187L1215.3 620.629L1213.87 622.072L1213.15 622.432L1212.43 622.793L1211.36 622.072L1209.92 620.269L1209.21 619.908L1207.06 620.269L1200.96 622.072L1198.81 621.711L1197.02 620.629L1195.58 619.187L1195.23 618.826L1194.15 618.466L1193.43 618.105L1192.36 617.023H1191.28H1188.41H1187.34L1185.9 615.941L1184.11 614.499L1181.96 611.253L1180.17 609.811L1160.81 602.598L1159.38 601.156L1158.66 600.435L1157.94 599.353L1156.51 596.107L1155.79 595.746L1154 595.386L1152.92 594.665L1152.56 596.468L1151.85 599.353L1150.77 600.074H1147.19L1145.75 600.435L1144.68 601.156L1143.96 602.238L1142.89 604.041L1141.81 606.204L1141.09 608.729L1140.73 610.893L1141.45 615.581V618.105L1140.73 620.269L1139.66 621.711L1137.51 624.236L1133.21 630.005L1130.34 631.448H1129.26L1092.34 632.53L1085.88 634.694L1070.47 643.348L1067.96 645.152L1066.17 648.037L1065.81 652.003L1067.6 660.298L1067.96 664.625L1066.53 668.231L1063.3 674.362H1043.22H1025.66L1001.64 674.001L981.204 674.362H960.411L957.902 673.641L957.184 670.756L956.109 620.269L959.694 617.384L961.128 615.941L964.713 610.532L976.185 595.025L975.109 590.337L963.637 575.912L933.882 541.653L928.146 538.408L908.071 530.474L899.108 527.228L891.58 520.377L863.976 490.445L792.993 415.075L776.502 397.765L763.238 384.062L760.37 381.177L743.162 379.374L703.011 382.619L699.426 382.259L698.709 381.537L698.35 360.982L697.633 324.559L697.275 290.3L696.916 288.858L696.558 287.776L695.482 287.055L678.275 286.694L677.199 286.333L676.841 285.612L676.482 284.17L676.124 210.242L676.841 209.882H739.577L740.653 207.718L741.011 205.915L741.37 186.081V183.556L742.087 182.835L742.445 183.196V184.277L743.162 184.999L748.181 184.277H749.615L758.578 190.769L762.163 192.211H765.389L768.257 190.408L770.767 187.884L772.559 184.277L774.71 182.835L775.427 178.868L776.502 176.344L778.653 175.623L781.88 175.983L790.125 178.147L797.654 181.393L817.012 195.817L818.805 197.62L824.899 208.439L825.616 210.242L825.975 212.767L826.333 220.7L826.692 222.503L825.975 223.225L827.05 225.749L829.918 235.125L830.635 240.534L831.352 243.059L832.428 244.501L835.296 247.747L836.371 249.189L838.164 256.402L839.239 258.565L842.466 262.893L842.824 263.975L843.541 266.86H843.9Z" fill="url(#paint1_linear_9_59)" stroke="#1C104F" stroke-linecap="round" stroke-linejoin="round"/>
<path fill-rule="evenodd" clip-rule="evenodd" d="M568.933 33.1772H571.443L573.952 32.4559L576.462 31.0134H578.613L580.764 32.0953L586.499 37.8652L587.575 40.029L588.292 42.1927L589.367 51.2082L590.443 53.372L592.952 54.8144L597.613 55.1751L599.405 55.8963L602.99 59.5025L605.141 60.5844H609.443L627.727 57.6994L635.255 58.4207L639.198 58.06L643.142 58.4207L646.01 61.3056L648.161 65.2725L651.387 67.7968L654.972 69.5999L657.123 70.6818L658.199 72.1243L657.84 74.288L656.406 75.3699L654.614 76.0911L653.18 77.173L652.463 82.5823L654.255 88.3522V92.6797L649.236 94.8434L647.802 95.204L646.727 96.2859V98.089L647.444 99.5315L648.878 100.253L653.18 99.8921L662.501 103.498L665.01 105.662L666.803 108.908L667.878 110.35L669.312 111.793L673.255 113.956L674.331 115.038L675.406 116.481L676.482 118.284V119.726L675.406 121.169L674.331 121.529L672.539 120.808L669.312 118.644L666.086 117.923H663.576L661.067 119.726L658.916 122.972L659.633 126.939L662.501 131.987L668.237 140.282L668.954 142.445L667.878 143.888L664.293 145.691L662.501 147.133L661.425 148.576L660.708 150.74L659.633 160.116L660.35 162.64L662.859 165.165L672.18 170.213L680.425 174.541L685.803 178.147L690.463 183.196L692.973 184.999L695.841 185.72H701.218L711.615 182.114L729.181 181.032L734.917 182.474L739.219 186.802L739.936 186.441L740.294 185.72L741.37 183.556V186.081L741.011 205.915L740.653 207.718L739.577 209.882H676.84L676.123 210.242L676.482 284.17L676.84 285.612L677.199 286.333L678.274 286.694L695.482 287.055L696.558 287.776L696.916 288.858L697.275 290.3L697.633 324.559L698.35 360.982L698.709 381.537L699.426 382.259L688.312 384.062L685.444 383.701L685.086 383.34V382.259L684.727 381.177L684.369 380.455L683.652 379.734L682.576 379.013L682.218 378.292L681.859 377.931L681.501 377.21L681.142 374.686L680.425 370.719L680.067 369.637L679.708 368.916L679.35 368.194L678.274 367.113L677.557 366.752H677.199H676.482L674.689 367.834L673.972 368.194L672.539 367.834L670.388 367.473L668.954 367.113L668.237 367.473L667.878 367.834L667.52 368.194L666.444 369.637L666.086 369.997L665.727 370.358L664.652 370.719L663.576 371.44L661.784 371.801L661.067 371.44L660.708 371.079L655.689 365.309L654.972 364.228V362.785V326.362L654.614 325.28L654.255 324.559H653.18H605.858L584.348 324.199L577.537 322.756L572.518 319.15L571.443 318.068L567.141 311.937L532.725 303.283L528.782 301.84L523.046 300.398L516.234 300.037L515.517 300.398H515.159L514.8 300.758L514.442 301.479V301.84V302.561V305.446V306.167L514.083 306.528L512.291 306.889L502.97 305.807L481.819 312.298L471.781 313.38L436.648 313.019L431.271 315.183L429.478 316.265L426.252 319.51L425.535 319.871L424.818 320.232L419.44 320.953H418.723L418.006 320.592L417.648 320.232L417.289 319.871L416.931 319.51L416.214 318.789L415.497 318.068L415.138 317.707L414.421 317.347L411.195 316.626L410.836 316.265L410.478 315.904L410.119 315.544L409.761 314.101L408.327 309.413L407.61 308.692L407.251 307.971L404.742 306.528L402.233 304.725L405.817 293.546L406.534 289.94L402.591 279.481L399.006 264.696L397.931 261.45L392.912 254.959L390.402 252.796L388.251 249.911L387.534 248.829L387.176 248.107L386.1 244.141L376.062 218.176L375.704 217.815L373.194 214.93L370.326 210.603L369.251 209.521L368.892 209.16L367.1 208.079L366.383 207.718L365.666 206.636L365.307 205.915V205.194V204.472L365.666 203.03L366.024 202.309V201.227L365.307 200.866L364.949 200.505H363.873L363.156 200.145L362.439 199.784L361.722 199.063L361.005 198.342L360.288 196.539L358.138 188.966L355.628 182.474L355.27 180.311L354.911 175.623L358.138 175.983L377.496 177.065L385.742 178.508L396.138 180.671L397.931 179.95L400.44 174.901L402.233 173.098L406.176 170.935L407.968 169.492L409.044 168.41L409.402 167.689L408.685 167.328L404.383 166.246L402.95 165.525L401.874 164.443L399.723 162.28L398.289 159.395L396.855 156.149L396.497 153.264L396.855 148.937L396.497 145.691L395.421 142.445L393.27 139.56L391.836 135.233V131.627L392.553 127.66L392.912 123.332L391.119 114.317V109.629L393.27 106.383L401.874 102.416L405.459 99.5315L408.685 94.8434L413.346 85.8279L420.157 78.9761L428.403 75.0092L436.648 74.6486L448.837 76.8123L452.78 75.7305L457.799 73.5667L459.233 73.2061L465.328 73.5667L466.762 73.2061L468.913 71.7636L468.554 70.6818L467.479 69.2393L466.762 67.4362L467.479 65.9937L470.705 64.9118L472.139 63.4694L475.724 55.1751L476.441 52.6507L476.083 50.8476L474.29 46.5201L473.932 43.6352L475.366 42.1927L477.517 41.1108L480.026 38.5865L480.743 37.144L481.46 36.0621L483.253 35.3409L485.045 34.9803H487.196L488.63 35.7015L490.064 36.7834L491.857 40.029L493.291 40.7502L494.724 40.3896L497.951 39.3077L499.385 38.9471L501.177 39.3077L509.781 43.2746L512.649 45.4383L515.159 48.6839L515.876 52.6507L515.517 54.8144L515.159 56.9782V58.7813L516.234 60.2238L517.668 60.5844L523.046 59.8631L524.121 59.1419L524.48 58.06L524.121 57.3388L523.046 56.2569L519.461 51.9295L513.366 41.4715L510.857 36.0621L508.347 32.0953L505.121 29.5709L494.366 24.5222L492.573 23.0798L492.215 20.5554L492.932 19.1129L494.724 17.6704L497.951 16.228L502.611 13.343L504.045 12.9824H506.196L515.517 16.9492L519.819 18.0311H524.48L528.065 16.9492L529.857 13.7036L530.933 3.60621L532.725 1.08186L534.518 2.16373L553.159 24.1616L559.254 29.5709L564.99 32.4559L568.933 33.1772Z" fill="url(#paint2_linear_9_59)" stroke="#1C104F" stroke-linecap="round" stroke-linejoin="round"/>
<path d="M56.2846 452.58L55.2091 443.204L54.1336 434.188L54.4921 429.5L57.0016 427.697V427.336V426.976L56.6431 426.254L54.4921 426.615L53.0581 428.058L52.3411 430.221L51.9826 432.746L52.3411 435.27L53.0581 440.319L53.4166 443.204V446.089V447.17L54.1336 448.974L55.5676 451.859L58.077 461.595L58.4355 464.12H59.1525L58.794 463.038V462.317L59.1525 460.874L56.2846 452.58ZM90.7002 375.767L91.7757 379.374L92.1342 380.095H93.2097L94.6436 379.374L95.7191 377.931L96.0776 376.489L94.2851 373.604V372.883L93.9267 370.358L93.5682 371.079H93.2097L92.8512 370.358L92.1342 369.637L91.0587 369.998L89.9832 371.079L89.6247 372.161L89.9832 373.604L90.7002 375.767ZM399.724 512.082L391.478 506.312L390.044 504.87L388.252 501.985L387.893 501.264L386.818 497.657L386.459 496.936L385.742 496.576L384.308 496.936L381.799 498.018L381.082 498.379H380.365L379.29 497.657L378.214 497.297L377.139 496.936H375.346L371.044 498.379H369.969L368.535 498.018L363.516 495.494L362.082 495.133H361.006H360.648H360.289L359.931 494.773L359.572 494.412L359.214 493.691L358.855 492.969V491.166L359.572 480.708L359.931 479.626L360.289 478.905L361.006 478.184L361.723 477.823L363.157 477.102L363.874 476.741L364.233 476.02V474.938L363.874 472.775V471.693L364.233 470.611L366.742 466.283L367.101 465.562L367.459 464.48V463.038L367.818 460.153L393.988 373.604L394.705 372.161L395.422 371.801L397.573 370.719L402.95 368.555L404.026 367.834L404.743 367.113L405.101 366.391V365.309L397.931 337.181L396.856 330.329L396.497 329.608L395.422 327.444L395.063 326.723L394.705 326.002V324.92L395.063 324.199L395.78 323.477L400.441 319.871L410.837 314.462L409.403 309.774L409.045 309.053L408.328 308.331L405.818 306.889L403.309 305.086L406.894 294.267L407.611 290.661L403.667 280.203L400.082 265.417L399.007 262.172L393.988 255.681L391.478 253.517L389.327 250.993L388.61 249.911L388.252 249.189L387.176 245.223L377.139 219.258L376.78 218.897L373.912 216.012L371.403 211.685L370.327 210.603L369.61 210.242L367.818 209.521L367.101 209.16L366.384 208.079L366.025 207.357V206.636V205.915L366.384 204.472V203.751V202.669L366.025 201.948L365.667 201.587H364.591H363.874L363.157 201.227L362.44 200.506L361.723 199.784L361.006 198.342L358.855 190.408L356.704 184.278L355.27 180.311L354.912 175.623L336.987 174.541L320.855 173.82L306.873 173.098L301.137 172.377L298.269 172.738L290.383 176.344L282.496 177.426L277.477 179.59L266.722 180.311L264.212 179.229L261.703 177.786L259.552 176.705L258.118 174.541L255.608 168.771L254.533 166.968L253.099 165.525L247.721 161.919L244.854 158.673L242.344 155.428L236.608 145.691L230.872 135.594L226.929 130.184L217.966 117.923L216.891 115.76L216.532 113.235V110.711L216.891 108.547V106.744L216.532 104.58L214.381 102.056L199.683 88.3523L189.287 81.5005L180.683 75.7306L165.984 65.9938L152.72 56.9783L146.267 54.8145L139.814 53.7327L119.021 57.6995L105.757 60.2238L90.7002 63.1088L84.9643 64.1907L65.964 71.7637L60.945 74.6487L47.6807 79.3368L29.0389 94.8435L17.567 106.383L4.30264 119.726L0.717682 123.333L1.79317 125.136L3.94415 125.857L4.66114 126.218L6.09512 128.021L7.52911 128.742L7.8876 129.463L8.6046 130.906L9.32159 131.266L10.7556 130.184L11.4726 130.545L12.1896 131.266L12.5481 132.348L13.265 134.512L13.6235 134.872L13.982 135.233H14.3405L14.699 135.954V136.676L14.3405 137.757V138.479V141.003V142.446L13.982 143.527L12.1896 146.773L11.8311 147.134V150.019L12.9065 151.461L14.3405 152.182L15.7745 153.264L18.6425 157.231L19.3595 157.952L21.5105 158.313L22.9444 158.673L24.3784 160.116L25.0954 160.837V161.919V163.362L25.4539 164.443L26.1709 165.165L27.2464 165.525L28.6804 166.607L30.1144 170.935L31.1898 172.016V173.098L32.9823 179.95V181.032L32.6238 183.196L32.9823 184.638L33.3408 184.999L34.4163 186.441L34.7748 187.163L35.4918 189.326L36.2088 191.49L36.5673 194.014V196.539L35.8503 200.145V201.587L36.2088 202.309L37.6428 203.39L38.0013 204.472H39.4353V201.948L41.2277 198.702L41.5862 196.178L41.2277 194.014L36.5673 184.278L35.8503 182.474L35.1333 175.262L34.4163 170.574L33.3408 167.689V166.607L33.6993 165.525L34.7748 162.28L35.1333 159.755L40.8692 144.97L41.2277 142.446V141.003L40.8692 138.839V137.757L41.2277 136.676L42.6617 134.151V132.709L41.5862 130.906L39.4353 129.824L35.1333 129.463L33.6993 129.824L31.1898 133.43L30.1144 133.791L29.7559 131.987L30.1144 129.103L30.8314 126.218L31.5483 125.136L32.6238 124.054L34.0578 121.89L44.0957 99.5316L46.2467 96.286L54.8506 89.4342L57.0016 86.9098L60.228 84.0249L63.813 82.5824L68.4734 85.1067L75.2849 85.4673L77.0773 85.1067L82.0963 82.2217L108.625 77.8943L112.21 80.058L115.795 78.9762L120.097 80.4186L124.04 82.943L126.55 85.4673L127.267 87.2704L127.984 89.4342L128.342 91.5979V93.401L127.984 94.8435L127.625 97.3678V98.8103L127.984 100.974V101.695L127.625 102.777L127.267 103.859L126.908 104.941L127.267 106.383L127.984 106.744L129.059 107.105L130.135 107.465L130.493 108.547L131.21 110.711L135.154 117.923L136.588 121.529L137.663 125.496L138.022 129.824V139.921L138.38 144.609L139.456 148.576L141.248 152.182L142.324 153.985L143.758 155.428L145.55 156.51L148.777 157.231L149.494 157.952L151.286 160.837L152.362 162.64L152.72 163.362L154.512 164.804L158.456 166.968L161.682 170.213L163.116 171.295L170.645 174.541L187.853 187.884L190.721 191.49V195.096L192.872 196.178L195.381 196.539L197.891 197.26L199.324 199.063L198.966 198.702L198.607 199.063L198.249 199.784V200.506V200.866L198.607 201.587L199.324 202.669L200.041 203.39L201.834 204.833L202.551 205.915L198.966 203.39L196.815 202.309L194.664 201.948V202.669L195.74 203.39L198.607 208.079L200.758 210.964L201.475 212.406L201.834 214.209L201.475 216.012L200.758 217.815L197.174 223.585L196.457 224.307L192.872 226.11L191.438 228.634L190.004 228.995L187.136 230.076L177.098 231.88L173.871 231.158L175.305 228.995L176.381 227.192L176.022 225.388L173.513 223.946H172.079L166.701 219.618L164.192 218.537L162.399 218.897L161.682 219.979L159.531 222.503L158.814 222.864H158.097H157.38L157.022 223.225L157.38 224.307L158.097 224.667H158.814L159.173 225.028V225.749L158.814 226.47L158.456 227.192V227.913L158.814 228.995L159.531 230.798L160.248 233.683L162.041 236.928L162.399 239.092L162.758 241.616L163.475 242.698H164.55H173.154L171.72 244.141L168.135 244.862L167.06 246.304L168.852 247.026L170.645 248.108L157.739 247.386L155.229 246.304L154.871 245.944L155.229 245.223L155.946 242.338L156.305 241.616L155.946 241.256H150.569L148.06 242.698L145.55 243.059L140.531 242.698L141.248 243.419L143.399 244.501H143.758V245.223L143.399 246.304L142.682 247.026L139.814 247.747L138.739 248.829L136.946 249.55L134.795 249.189L132.286 247.747H131.569L130.852 248.108L127.267 250.271L125.474 251.714L124.04 253.156L119.021 252.435L115.078 253.156H111.851L110.417 250.271L110.776 249.189L111.851 246.665L112.21 245.944L111.851 244.862L111.134 244.501H110.417L109.7 243.78L107.908 241.616L106.474 236.928L105.399 234.765L106.116 234.043L106.474 233.322L107.191 231.519L106.474 230.798L106.116 230.076L105.757 227.552V227.192L106.116 226.47L106.474 225.749V225.028L106.116 224.667L105.04 224.307L104.682 223.946L104.323 223.225L103.606 222.503L102.889 222.143L102.172 221.782H101.097L100.38 222.503L98.2286 227.192L97.8701 228.995V234.043L97.5116 236.568L96.4361 238.01L93.2097 239.092L92.1342 240.174L91.4172 240.534L90.3417 240.895L89.6247 240.534L88.5492 239.453L87.8322 239.092L86.0397 238.731L84.2473 237.65L82.8133 235.846L82.0963 233.683V232.601L82.8133 230.437V229.716L81.7378 229.355L80.6623 230.076L79.2283 231.88L78.8698 232.601V234.043V235.486L78.1528 236.207L71.6999 236.928L70.6244 236.207L70.9829 234.404L72.4169 231.158L70.9829 231.519L67.0395 235.846L65.247 236.568H63.4545L59.511 236.207L58.4355 235.846L58.077 234.765V233.322L57.7186 232.24L57.0016 231.158L56.2846 230.798L55.5676 230.076L55.2091 228.273L56.6431 227.552L58.794 226.831L60.228 225.388L59.1525 226.11L58.077 226.47H55.9261L55.5676 226.11L52.6996 224.307L51.9826 222.864L50.9071 218.537L50.1901 216.733L46.6052 210.603L45.8882 208.439V207.357L46.2467 205.915L46.6052 204.472L46.2467 203.03L45.5297 202.309L43.3787 201.227L42.3032 200.506V205.194L43.3787 213.127L43.0202 217.094L39.4353 225.749L37.6428 234.404L38.0013 235.125L38.3598 236.207V237.289L38.0013 238.371H37.2843L35.8503 239.092L34.7748 239.813L35.1333 240.174V240.534L34.4163 242.698L34.0578 243.78L34.4163 244.501L36.5673 245.223L37.2843 245.944L36.9258 249.911L34.4163 254.959L29.3974 262.172L27.6049 265.778L26.5294 269.384L23.6614 289.218L23.3029 293.546L25.0954 297.873L26.8879 299.676L27.2464 300.758L26.1709 301.84L28.6804 305.086L29.3974 307.249L28.6804 309.413L27.9634 311.216L27.2464 314.101L26.5294 319.15L28.3219 320.953L31.1898 324.199L39.4353 331.05L40.1522 332.132L40.5107 336.46L41.2277 338.984L42.3032 340.787L45.5297 342.23L46.6052 343.672L49.1146 349.803L50.1901 351.245L53.0581 354.13L53.7751 353.409L51.2656 350.163L50.1901 349.082L54.1336 351.245V350.524L53.4166 349.803L50.5486 347.278L47.3222 341.148L46.6052 340.787L44.0957 337.542L43.7372 336.46L43.0202 329.969L42.6617 328.526L41.2277 326.362L40.5107 324.92V323.838L41.9447 322.396L43.0202 323.477L44.4542 326.723L47.3222 327.444L50.5486 327.084L56.6431 325.28L55.9261 326.002L55.2091 326.723L54.8506 327.444L54.1336 328.165L60.228 327.444L61.662 326.723L63.096 325.28L64.53 324.559L70.2659 328.887L71.3414 329.247L72.0584 329.608L73.4924 330.69L74.2094 331.05L74.9264 330.69L76.3603 329.608L76.7188 329.247L78.1528 328.526L81.7378 324.199L83.1718 323.477L84.6058 323.117H86.0397L87.4737 323.477L88.9077 324.199L91.0587 326.002L92.4927 326.362L95.7191 326.002L97.1531 326.362L98.5871 327.805L98.9456 327.444H99.3041H99.6626L100.021 327.084L99.3041 329.247L97.1531 331.772L95.7191 333.214L94.6436 334.657L95.0021 335.017L95.3606 335.739V336.46L94.2851 336.82H92.4927L91.7757 337.181L91.0587 337.542L91.4172 337.902L91.7757 338.984L92.1342 339.705L89.2662 342.59L84.6058 349.082L82.4548 350.885V351.606L83.5303 352.327L84.6058 352.688H85.6812L86.7567 351.966L85.3227 360.621L85.6812 364.588L88.5492 366.752V364.949L86.7567 362.785V360.621L87.1152 360.982L88.5492 361.703L88.9077 362.064L88.1907 359.54L87.8322 358.818L89.9832 359.179L92.1342 361.343L95.3606 366.391H96.0776V364.949L95.3606 360.982L96.4361 361.703L97.5116 362.785L98.2286 364.228L98.5871 365.309V367.473L98.9456 368.194L103.248 367.834L104.323 368.194L105.399 369.276L106.116 371.079V372.161L105.399 372.883L103.965 373.243L105.399 374.686L108.983 375.407L110.776 376.128L111.851 376.849L112.927 377.931L113.285 379.013L112.21 380.095H111.493L109.342 379.013L108.625 378.652L106.833 379.374L104.323 381.898H102.531L101.097 380.456L100.021 378.652L98.9456 378.292L97.8701 381.177L98.9456 381.537L99.3041 381.898L99.6626 382.619V383.701L99.3041 384.783H98.5871L97.1531 384.062L93.5682 383.701L92.1342 383.341L91.0587 382.619L89.9832 381.177L89.2662 379.374L88.1907 377.931L86.3982 377.21L81.0208 376.849L71.6999 378.652L68.4734 378.292L68.1149 375.407L69.9074 373.604L70.2659 373.243L70.9829 369.998L71.3414 368.916L73.8509 365.309L75.2849 364.228L77.0773 363.146L73.8509 362.424L70.9829 365.67L68.4734 370.358L65.247 379.013L64.1715 381.177L62.379 382.619L62.0205 384.062L61.662 385.504L61.3035 386.586L58.794 389.11L58.077 390.192L57.3601 392.356L57.7186 394.159L61.3035 399.929L62.0205 401.372L64.1715 417.239L65.247 417.6L65.964 416.157L66.3225 413.272L65.247 408.584V406.781L65.6055 404.978L66.3225 403.535L67.7564 401.011L66.681 400.65L63.4545 398.487L65.247 397.405L69.5489 395.962H71.3414L72.4169 396.323L73.8509 397.405L74.9264 397.765H76.0019H76.7188L77.0773 398.126L76.7188 398.847V399.569H78.1528L80.3038 398.487L81.3793 398.126L81.7378 398.487L82.4548 399.569L82.8133 399.929H83.1718L83.8888 399.208H84.6058H85.6812H86.3982L85.6812 401.372L85.3227 402.093H86.7567L87.8322 401.372L88.9077 400.29L89.6247 399.208H90.3417V401.372H91.0587L92.8512 399.929L96.4361 399.569L97.5116 398.847L98.2286 399.569L99.6626 397.405L100.738 396.684L101.097 397.765L100.021 400.29L101.814 399.929L102.531 399.569L102.172 401.011L100.738 404.978L103.248 402.814L101.455 409.305L101.097 412.551L101.455 415.075L102.172 413.993L103.606 410.387L103.965 409.666L104.682 410.387V411.83L104.323 413.633L103.965 415.075L105.757 415.436L106.474 417.239V419.403L106.833 421.566L107.908 423.37L110.059 426.254L111.134 428.058L110.417 415.796L109.342 415.075L110.776 413.272L113.285 411.469L115.078 410.387L113.285 415.436V417.96L115.795 418.321L113.285 419.763L112.927 420.485V421.566L113.644 423.73L112.568 426.615L113.285 428.779L114.361 430.582L115.795 431.303V430.582L115.078 429.5L114.361 427.697L111.134 425.533L111.851 424.812L112.21 425.894L114.002 431.303L114.719 432.746L115.795 433.828L116.153 433.467L116.512 432.746L117.587 432.385H118.304L120.455 433.106H123.682L124.757 433.828L125.833 435.991V437.073L126.191 438.155L126.55 439.237L126.908 439.958H127.267L128.342 440.319L128.701 440.679V441.04L129.059 442.122V442.482L131.927 443.564L133.003 444.646V446.81L133.72 446.449L133.361 447.892L132.286 450.055L131.21 451.498L130.493 453.301L130.135 455.465L129.418 457.629L127.984 458.71L128.701 461.956L127.267 465.923L123.323 472.414L121.889 476.02L120.814 480.348L120.097 489.363V491.888L121.531 498.739L121.889 500.903L122.248 501.985L122.606 503.067L123.323 504.509V505.231L123.682 513.525V518.213L122.606 521.819L122.965 524.704L120.814 532.998L120.097 538.408L119.021 542.014L118.663 543.817L120.097 575.552L123.323 590.337L123.682 595.025L124.04 597.189L125.833 601.516L126.55 605.844L127.625 619.548L151.286 621.711H153.079L154.512 620.99L155.946 619.548L157.38 618.466H159.173L161.324 618.826H163.116L166.343 617.744L181.041 609.089L182.834 608.729L188.211 609.811H190.004L191.438 609.089L193.589 606.926L195.381 606.205L196.457 605.123L200.4 602.238L202.551 600.435L202.909 599.713L203.268 597.91L204.343 595.025L204.702 593.583V591.058V590.337L204.343 589.616L203.268 588.534L202.909 587.813V585.649L204.343 582.403L204.702 580.24L205.06 578.437L206.136 576.634L208.645 573.749L221.551 564.733L225.495 560.045L226.212 558.963L226.57 557.521L227.646 556.799L228.721 556.439L229.797 556.078L230.514 555.357L231.589 553.193L232.306 552.472L234.099 551.751L239.118 550.669L240.193 550.308L240.91 548.505L242.703 547.423L246.646 545.981H247.721L249.514 544.538L251.306 543.456L257.759 538.408L259.91 537.686L265.288 537.326L282.496 533.72H285.005L290.383 534.802L293.609 536.605L295.043 536.965H299.345L300.779 537.326L303.288 538.408L304.364 538.768H305.798L317.987 536.605L321.572 536.965H321.93L324.44 538.047L325.874 538.408L333.402 537.326L334.836 536.244L335.553 534.441L335.911 532.277L335.553 530.474L333.044 527.589L333.761 526.147L339.138 521.098L342.006 518.934L345.232 517.852L353.119 517.492L354.553 517.852L355.629 518.574L356.704 519.295L357.78 520.016L359.214 519.655L366.025 516.41L370.327 515.689H371.044L374.271 518.574L377.139 520.377L378.573 520.737L391.478 523.262L395.063 524.704L396.856 525.065L398.29 524.343L399.365 523.262L402.233 521.459L403.309 520.377L405.101 517.492L405.46 517.131L399.724 512.082Z" fill="url(#paint3_linear_9_59)" stroke="#1C104F" stroke-linecap="round" stroke-linejoin="round"/>
<path fill-rule="evenodd" clip-rule="evenodd" d="M960.412 674.362H981.205L1001.64 674.001L1025.66 674.362H1043.22H1063.3L1054.34 691.311L1052.9 694.917L1051.83 699.245L1051.47 701.409V703.572L1051.83 705.736L1052.9 710.063L1053.26 712.227L1052.9 716.555L1051.83 720.521L1050.39 724.128L1043.58 734.946L1041.79 737.11L1038.92 739.274L1036.05 740.356L1029.6 741.798L1028.17 742.519L1026.73 743.241L1025.66 744.683L1024.22 749.011L1023.51 749.732L1022.43 749.371L1021 749.011L1017.41 748.289L1014.19 749.011L1010.96 750.453L1005.58 754.781L1004.51 756.223L1003.43 758.026L1003.79 759.829L1004.51 764.878V766.32L996.261 763.075L993.752 762.714H992.318L990.884 763.075L988.374 763.796L980.129 768.484L976.903 769.566L966.148 770.287L964.355 770.648L962.563 771.369L961.487 772.812L959.336 775.697L958.261 776.778L951.091 780.024L943.562 781.466L924.921 781.106L923.128 781.466L921.694 782.909L921.336 784.712L922.053 786.155L922.77 787.597L923.128 789.4L923.845 790.843L928.147 794.809L929.223 796.613L929.94 796.973L932.091 798.055L932.449 798.416V799.137L932.091 800.219L929.581 802.022L922.77 804.186L920.619 806.349V808.152V813.562L920.977 814.644L922.411 816.086L922.77 817.168L921.694 820.414L921.336 824.38L920.977 826.544L919.902 827.626L918.109 827.987L914.524 828.347L912.732 828.708L906.996 831.593L899.109 838.084H898.75L893.373 840.969L891.222 843.133L889.788 844.575L888.712 845.657L887.637 846.739L881.184 849.263L879.75 849.624H879.033L876.524 848.542H875.448L874.731 848.903H874.014L872.939 848.181L867.203 843.133H865.052L862.184 845.657L853.58 857.197L852.146 857.918L851.429 856.836L849.636 853.23L849.278 851.427V847.1V845.296L848.561 843.493L847.844 841.69L846.41 840.608L841.75 838.445L839.24 836.642L830.636 827.987L828.127 826.184L825.617 825.102L820.598 824.741L810.202 828.708L805.183 829.068L793.353 827.265L787.617 824.741L783.673 820.414L777.937 815.365L777.22 815.004L778.296 813.922L779.371 812.48L780.088 811.759L782.956 809.956L783.673 809.234L786.541 805.989L786.9 804.907V803.464L787.617 795.531L787.975 795.17V794.449L788.692 793.728L790.485 791.925L790.843 791.564V791.203L790.485 790.482L790.126 790.121L788.692 789.4L785.466 785.433L784.032 784.351L782.956 782.909L782.239 782.188L780.805 779.303V778.581V777.86L781.522 776.418L781.881 776.057L782.598 775.697L784.39 775.336H786.9L787.975 774.975L788.692 774.615H789.051L789.409 774.254L790.126 773.533L790.485 773.172H791.202L791.919 772.451L792.277 772.09V771.73L792.636 771.369L792.277 765.96L791.919 765.239L787.975 764.878L786.9 764.517L785.824 763.796L785.466 758.387L785.107 725.931L784.749 694.557L780.805 684.82L760.729 650.922L757.503 645.873L741.371 619.548V618.826L741.729 618.466H742.446L746.39 618.105L748.182 617.744H749.616L753.201 618.466L753.918 618.826L754.635 619.187L756.427 620.629L757.503 622.432L759.654 626.399L760.371 628.924L761.088 631.087V636.497L761.446 637.579L762.522 638.66L763.239 639.382L764.314 639.742L764.673 640.103L765.748 640.464H767.182H768.616L769.692 640.103L771.843 639.742L773.994 638.3L774.711 637.579L775.786 636.136L776.503 634.694L777.22 632.891L777.579 631.809V631.087V629.645V628.563L777.22 627.842L776.862 627.121L776.503 626.76L776.145 626.039L775.786 625.678L774.352 624.957L770.409 624.236H767.899L767.541 624.596L764.673 625.317L763.597 626.039L762.88 626.76H762.522H762.163L757.861 618.826L756.786 617.744L756.427 617.023H756.069L755.352 616.663L754.276 616.302L746.39 615.941L744.597 616.302L742.805 615.941L741.012 616.302H740.295L738.861 615.941L738.503 615.581L738.144 615.22L731.691 590.337V584.567L732.408 581.322H734.201L735.993 580.6L736.71 579.519L735.993 576.273L731.691 564.012V562.569L732.05 561.848L733.484 561.487L737.069 561.127L738.861 560.406L739.578 559.324L738.861 556.799L732.05 542.735L728.465 537.686L706.955 514.967L705.162 509.919L694.408 464.841L699.068 465.202H700.502L701.936 464.48L702.653 462.677L703.012 460.874L704.804 449.334L705.162 447.531L705.879 446.089L707.672 445.728L713.049 444.646L714.483 443.925L715.2 442.122L715.917 440.319L721.295 409.666L724.163 406.06L735.276 402.453L740.654 401.372L741.371 398.847L742.446 397.044L743.163 379.374L760.371 381.177L763.239 384.062L776.503 397.765L792.994 415.075L863.976 490.445L891.58 520.377L899.109 527.228L908.071 530.474L928.147 538.408L933.883 541.653L963.638 575.912L975.11 590.337L976.185 595.025L964.714 610.532L961.129 615.941L959.695 617.384L956.11 620.269L957.185 670.756L957.902 673.641L960.412 674.362Z" fill="url(#paint4_linear_9_59)" stroke="#1C104F" stroke-linecap="round" stroke-linejoin="round"/>
<path d="M547.244 533.318C547.244 544.455 533.244 554 533.244 554C533.244 554 519.244 544.455 519.244 533.318C519.244 529.521 520.719 525.879 523.344 523.194C525.97 520.509 529.531 519 533.244 519C536.957 519 540.518 520.509 543.143 523.194C545.769 525.879 547.244 529.521 547.244 533.318Z" fill="#F4F4F4"/>
<mask id="path-7-outside-1_9_59" maskUnits="userSpaceOnUse" x="522.199" y="522.259" width="22" height="22" fill="black">
<rect fill="white" x="522.199" y="522.259" width="22" height="22"/>
<path d="M533.984 532.801C534.874 532.036 535.775 532.119 536.685 533.05L538.264 534.665C538.731 535.142 539.143 535.377 539.499 535.369C539.863 535.361 540.286 535.11 540.769 534.616L541.031 534.349L542.289 535.636L541.672 536.268C540.769 537.191 539.936 537.678 539.172 537.731C538.413 537.779 537.633 537.395 536.834 536.577L535.498 535.211C535.035 534.738 534.641 534.485 534.316 534.452C533.996 534.416 533.648 534.59 533.272 534.975L531.675 533.341C532.051 532.957 532.213 532.53 532.177 532.203C532.142 531.867 531.898 531.53 531.431 531.052L530.298 529.893C529.518 529.095 529.156 528.312 529.211 527.543C529.267 526.774 529.747 525.926 530.654 524.999L531.271 524.368L532.53 525.655L532.268 525.922C531.782 526.42 531.536 526.853 531.532 527.221C531.524 527.586 531.754 528.007 532.221 528.484L533.658 529.954C534.093 530.399 534.322 530.836 534.346 531.265C534.37 531.694 534.19 532.145 533.806 532.619L533.984 532.801Z"/>
<path d="M533.751 534.186C534.499 535.097 534.418 536.017 533.508 536.948L531.929 538.563C531.462 539.041 531.232 539.462 531.24 539.826C531.248 540.199 531.493 540.632 531.976 541.125L532.237 541.393L530.979 542.68L530.362 542.048C529.459 541.125 528.982 540.273 528.931 539.492C528.883 538.715 529.259 537.918 530.059 537.1L531.394 535.734C531.857 535.261 532.105 534.858 532.136 534.526C532.172 534.198 532.002 533.842 531.626 533.457L533.223 531.824C533.599 532.209 533.947 532.383 534.268 532.346C534.596 532.31 534.994 532.053 535.461 531.575L536.595 530.416C537.374 529.618 538.14 529.248 538.892 529.305C539.644 529.361 540.473 529.853 541.379 530.78L541.997 531.411L540.738 532.698L540.477 532.431C539.99 531.933 539.567 531.683 539.207 531.678C538.851 531.67 538.439 531.905 537.972 532.383L536.535 533.852C536.1 534.297 535.673 534.532 535.253 534.556C534.834 534.581 534.392 534.396 533.929 534.004L533.751 534.186Z"/>
<path d="M532.582 534.137C531.692 534.902 530.792 534.819 529.881 533.888L528.302 532.273C527.835 531.796 527.424 531.561 527.067 531.569C526.703 531.577 526.28 531.828 525.797 532.322L525.536 532.589L524.277 531.302L524.895 530.671C525.797 529.748 526.63 529.26 527.394 529.207C528.154 529.159 528.933 529.543 529.733 530.361L531.069 531.727C531.532 532.201 531.925 532.454 532.25 532.486C532.571 532.522 532.919 532.348 533.295 531.964L534.892 533.597C534.516 533.982 534.345 534.338 534.381 534.666C534.417 535.002 534.668 535.408 535.135 535.886L536.269 537.046C537.049 537.843 537.411 538.626 537.355 539.395C537.3 540.164 536.819 541.012 535.913 541.939L535.295 542.57L534.037 541.283L534.298 541.016C534.785 540.518 535.03 540.085 535.034 539.717C535.042 539.353 534.812 538.932 534.345 538.454L532.909 536.985C532.474 536.54 532.244 536.102 532.22 535.673C532.197 535.244 532.377 534.793 532.76 534.319L532.582 534.137Z"/>
<path d="M532.445 532.752C532.043 531.678 531.778 530.921 532.688 529.99L534.267 528.375C534.734 527.897 534.964 527.476 534.956 527.112C534.948 526.74 534.702 526.307 534.22 525.813L533.958 525.546L535.217 524.259L535.834 524.89C536.737 525.813 537.213 526.665 537.265 527.446C537.312 528.223 536.936 529.021 536.137 529.838L534.801 531.204C534.338 531.678 534.091 532.081 534.059 532.412C534.024 532.74 534.194 533.096 534.57 533.481L532.973 535.114C532.597 534.73 532.249 534.556 531.928 534.592C531.6 534.628 531.202 534.885 530.735 535.363L529.601 536.523C528.821 537.32 528.056 537.69 527.304 537.634C526.552 537.577 525.723 537.085 524.816 536.158L524.199 535.527L525.457 534.24L525.719 534.507C526.205 535.005 526.629 535.256 526.989 535.26C527.345 535.268 527.757 535.033 528.224 534.556L529.66 533.086C530.096 532.641 530.523 532.406 530.943 532.382C531.362 532.358 531.803 532.542 532.266 532.935L532.445 532.752Z"/>
</mask>
<path d="M533.984 532.801C534.874 532.036 535.775 532.119 536.685 533.05L538.264 534.665C538.731 535.142 539.143 535.377 539.499 535.369C539.863 535.361 540.286 535.11 540.769 534.616L541.031 534.349L542.289 535.636L541.672 536.268C540.769 537.191 539.936 537.678 539.172 537.731C538.413 537.779 537.633 537.395 536.834 536.577L535.498 535.211C535.035 534.738 534.641 534.485 534.316 534.452C533.996 534.416 533.648 534.59 533.272 534.975L531.675 533.341C532.051 532.957 532.213 532.53 532.177 532.203C532.142 531.867 531.898 531.53 531.431 531.052L530.298 529.893C529.518 529.095 529.156 528.312 529.211 527.543C529.267 526.774 529.747 525.926 530.654 524.999L531.271 524.368L532.53 525.655L532.268 525.922C531.782 526.42 531.536 526.853 531.532 527.221C531.524 527.586 531.754 528.007 532.221 528.484L533.658 529.954C534.093 530.399 534.322 530.836 534.346 531.265C534.37 531.694 534.19 532.145 533.806 532.619L533.984 532.801Z" stroke="#CA0088" stroke-width="2" mask="url(#path-7-outside-1_9_59)"/>
<path d="M533.751 534.186C534.499 535.097 534.418 536.017 533.508 536.948L531.929 538.563C531.462 539.041 531.232 539.462 531.24 539.826C531.248 540.199 531.493 540.632 531.976 541.125L532.237 541.393L530.979 542.68L530.362 542.048C529.459 541.125 528.982 540.273 528.931 539.492C528.883 538.715 529.259 537.918 530.059 537.1L531.394 535.734C531.857 535.261 532.105 534.858 532.136 534.526C532.172 534.198 532.002 533.842 531.626 533.457L533.223 531.824C533.599 532.209 533.947 532.383 534.268 532.346C534.596 532.31 534.994 532.053 535.461 531.575L536.595 530.416C537.374 529.618 538.14 529.248 538.892 529.305C539.644 529.361 540.473 529.853 541.379 530.78L541.997 531.411L540.738 532.698L540.477 532.431C539.99 531.933 539.567 531.683 539.207 531.678C538.851 531.67 538.439 531.905 537.972 532.383L536.535 533.852C536.1 534.297 535.673 534.532 535.253 534.556C534.834 534.581 534.392 534.396 533.929 534.004L533.751 534.186Z" stroke="#CA0088" stroke-width="2" mask="url(#path-7-outside-1_9_59)"/>
<path d="M532.582 534.137C531.692 534.902 530.792 534.819 529.881 533.888L528.302 532.273C527.835 531.796 527.424 531.561 527.067 531.569C526.703 531.577 526.28 531.828 525.797 532.322L525.536 532.589L524.277 531.302L524.895 530.671C525.797 529.748 526.63 529.26 527.394 529.207C528.154 529.159 528.933 529.543 529.733 530.361L531.069 531.727C531.532 532.201 531.925 532.454 532.25 532.486C532.571 532.522 532.919 532.348 533.295 531.964L534.892 533.597C534.516 533.982 534.345 534.338 534.381 534.666C534.417 535.002 534.668 535.408 535.135 535.886L536.269 537.046C537.049 537.843 537.411 538.626 537.355 539.395C537.3 540.164 536.819 541.012 535.913 541.939L535.295 542.57L534.037 541.283L534.298 541.016C534.785 540.518 535.03 540.085 535.034 539.717C535.042 539.353 534.812 538.932 534.345 538.454L532.909 536.985C532.474 536.54 532.244 536.102 532.22 535.673C532.197 535.244 532.377 534.793 532.76 534.319L532.582 534.137Z" stroke="#CA0088" stroke-width="2" mask="url(#path-7-outside-1_9_59)"/>
<path d="M532.445 532.752C532.043 531.678 531.778 530.921 532.688 529.99L534.267 528.375C534.734 527.897 534.964 527.476 534.956 527.112C534.948 526.74 534.702 526.307 534.22 525.813L533.958 525.546L535.217 524.259L535.834 524.89C536.737 525.813 537.213 526.665 537.265 527.446C537.312 528.223 536.936 529.021 536.137 529.838L534.801 531.204C534.338 531.678 534.091 532.081 534.059 532.412C534.024 532.74 534.194 533.096 534.57 533.481L532.973 535.114C532.597 534.73 532.249 534.556 531.928 534.592C531.6 534.628 531.202 534.885 530.735 535.363L529.601 536.523C528.821 537.32 528.056 537.69 527.304 537.634C526.552 537.577 525.723 537.085 524.816 536.158L524.199 535.527L525.457 534.24L525.719 534.507C526.205 535.005 526.629 535.256 526.989 535.26C527.345 535.268 527.757 535.033 528.224 534.556L529.66 533.086C530.096 532.641 530.523 532.406 530.943 532.382C531.362 532.358 531.803 532.542 532.266 532.935L532.445 532.752Z" stroke="#CA0088" stroke-width="2" mask="url(#path-7-outside-1_9_59)"/>
<path opacity="0.5" d="M480.419 526.412C274.949 532.932 182.86 446.681 150.447 341.37" stroke="url(#paint5_linear_9_59)" stroke-dasharray="10 10"/>
<path opacity="0.5" d="M528.973 496.2C512.502 355.283 593.412 327.914 560.999 222.603" stroke="url(#paint6_linear_9_59)" stroke-dasharray="10 10"/>
<path opacity="0.5" d="M585.705 558.422C695.51 558.422 776.948 574.893 834.596 713.979" stroke="url(#paint7_linear_9_59)" stroke-dasharray="10 10"/>
<path opacity="0.5" d="M591.195 538.291C796.665 531.771 946.231 478.814 946.231 478.814" stroke="url(#paint8_linear_9_59)" stroke-dasharray="10 10"/>
</g>
<defs>
<linearGradient id="paint0_linear_9_59" x1="575.386" y1="300.037" x2="575.386" y2="815.004" gradientUnits="userSpaceOnUse">
<stop stop-color="#19103D"/>
<stop offset="1" stop-color="#0F0730"/>
</linearGradient>
<linearGradient id="paint1_linear_9_59" x1="952.703" y1="175.623" x2="952.703" y2="674.362" gradientUnits="userSpaceOnUse">
<stop stop-color="#19103D"/>
<stop offset="1" stop-color="#0F0730"/>
</linearGradient>
<linearGradient id="paint2_linear_9_59" x1="548.14" y1="1.08186" x2="548.14" y2="384.062" gradientUnits="userSpaceOnUse">
<stop stop-color="#19103D"/>
<stop offset="1" stop-color="#0F0730"/>
</linearGradient>
<linearGradient id="paint3_linear_9_59" x1="205.777" y1="53.7327" x2="205.777" y2="621.711" gradientUnits="userSpaceOnUse">
<stop stop-color="#19103D"/>
<stop offset="1" stop-color="#0F0730"/>
</linearGradient>
<linearGradient id="paint4_linear_9_59" x1="878.854" y1="379.374" x2="878.854" y2="857.918" gradientUnits="userSpaceOnUse">
<stop stop-color="#19103D"/>
<stop offset="1" stop-color="#0F0730"/>
</linearGradient>
<linearGradient id="paint5_linear_9_59" x1="474.985" y1="549.452" x2="120.116" y2="307.701" gradientUnits="userSpaceOnUse">
<stop stop-color="#1D4CF2"/>
<stop offset="1" stop-color="#E417B7" stop-opacity="0"/>
<stop offset="1" stop-color="#E417B7"/>
</linearGradient>
<linearGradient id="paint6_linear_9_59" x1="723.883" y1="507.233" x2="369.014" y2="265.482" gradientUnits="userSpaceOnUse">
<stop stop-color="#1D4CF2"/>
<stop offset="1" stop-color="#E417B7" stop-opacity="0"/>
<stop offset="1" stop-color="#E417B7"/>
</linearGradient>
<linearGradient id="paint7_linear_9_59" x1="850.152" y1="713.979" x2="591.195" y2="573.063" gradientUnits="userSpaceOnUse">
<stop stop-color="#1D4CF2" stop-opacity="0"/>
<stop offset="1" stop-color="#172CE4"/>
</linearGradient>
<linearGradient id="paint8_linear_9_59" x1="946.231" y1="468.748" x2="591.195" y2="538.291" gradientUnits="userSpaceOnUse">
<stop stop-color="#E417B7"/>
<stop offset="0.0001" stop-color="#E417B7" stop-opacity="0.33"/>
<stop offset="1" stop-color="#1D4CF2" stop-opacity="0.49"/>
</linearGradient>
<clipPath id="clip0_9_59">
<rect width="1230" height="859" fill="white"/>
</clipPath>
</defs>
</svg>
