<svg width="77" height="77" viewBox="0 0 77 77" fill="none" xmlns="http://www.w3.org/2000/svg">
<path d="M47.5735 29.3306H29.4245V47.4796H47.5735V29.3306Z" fill="#7C5CFC"/>
<path opacity="0.4" d="M22.6186 61.0913C26.3619 61.0913 29.4245 58.0286 29.4245 54.2854V47.4795H22.6186C18.8754 47.4795 15.8127 50.5421 15.8127 54.2854C15.8127 58.0286 18.8754 61.0913 22.6186 61.0913Z" fill="#7C5CFC"/>
<path opacity="0.4" d="M22.6186 29.3305H29.4245V22.5246C29.4245 18.7814 26.3619 15.7188 22.6186 15.7188C18.8754 15.7188 15.8127 18.7814 15.8127 22.5246C15.8127 26.2679 18.8754 29.3305 22.6186 29.3305Z" fill="#7C5CFC"/>
<path opacity="0.4" d="M47.5735 29.3305H54.3794C58.1227 29.3305 61.1853 26.2679 61.1853 22.5246C61.1853 18.7814 58.1227 15.7188 54.3794 15.7188C50.6362 15.7188 47.5735 18.7814 47.5735 22.5246V29.3305Z" fill="#7C5CFC"/>
<path opacity="0.4" d="M54.3794 61.0913C58.1227 61.0913 61.1853 58.0286 61.1853 54.2854C61.1853 50.5421 58.1227 47.4795 54.3794 47.4795H47.5735V54.2854C47.5735 58.0286 50.6362 61.0913 54.3794 61.0913Z" fill="#7C5CFC"/>
<path d="M51.3333 38.4998L38.5 25.6665L25.6667 38.4998L38.5 51.3331L51.3333 38.4998Z" fill="#7C5CFC"/>
<path opacity="0.4" d="M11.2293 43.3124C13.8761 45.9593 18.2074 45.9593 20.8542 43.3124L25.6667 38.5L20.8542 33.6875C18.2074 31.0406 13.8761 31.0406 11.2293 33.6875C8.5824 36.3343 8.5824 40.6656 11.2293 43.3124Z" fill="#7C5CFC"/>
<path opacity="0.4" d="M33.6875 20.854L38.5 25.6664L43.3125 20.854C45.9593 18.2071 45.9593 13.8759 43.3125 11.229C40.6656 8.58212 36.3344 8.58212 33.6875 11.229C31.0407 13.8759 31.0407 18.2071 33.6875 20.854Z" fill="#7C5CFC"/>
<path opacity="0.4" d="M51.3333 38.5L56.1458 43.3124C58.7926 45.9593 63.1239 45.9593 65.7707 43.3124C68.4176 40.6656 68.4176 36.3343 65.7707 33.6875C63.1239 31.0406 58.7926 31.0406 56.1458 33.6875L51.3333 38.5Z" fill="#7C5CFC"/>
<path opacity="0.4" d="M33.6875 65.7705C36.3344 68.4173 40.6656 68.4173 43.3125 65.7705C45.9593 63.1236 45.9593 58.7924 43.3125 56.1455L38.5 51.333L33.6875 56.1455C31.0407 58.7924 31.0407 63.1236 33.6875 65.7705Z" fill="#7C5CFC"/>
</svg>
