<svg width="44" height="62" viewBox="0 0 44 62" fill="none" xmlns="http://www.w3.org/2000/svg">
<path fill-rule="evenodd" clip-rule="evenodd" d="M30.9651 0.908352C31.7162 1.22632 34.0683 4.01475 35.058 5.76111C35.4737 6.49412 36.1666 8.38279 36.5983 9.95844C37.4768 13.1669 38.1519 14.1181 41.0638 16.2515C42.0325 16.961 42.9086 17.6792 43.0109 17.8476C43.3602 18.4218 42.898 19.4315 41.8973 20.2814C40.7039 21.2951 40.6511 21.8194 41.639 22.839C42.5757 23.8058 42.5831 24.7888 41.6601 25.5974C40.9529 26.2165 40.9503 26.2383 41.5118 26.7739C42.1793 27.4101 42.2735 28.9161 41.6619 29.1776C40.982 29.4682 40.8483 30.3204 41.2254 31.9594C42.0509 35.5456 40.8842 36.3235 34.7612 36.27L30.5486 36.2331L29.4432 37.3101C28.1027 38.616 25.0909 43.0758 24.1558 45.1398C23.2011 47.2468 22.6929 50.059 22.9381 51.8786C23.2304 54.0489 24.8958 57.5473 26.7223 59.8265L28.2919 61.7849L26.0706 60.4889C23.2221 58.8267 19.9648 55.3145 18.7242 52.5677C17.2174 49.2318 16.8012 47.1259 16.9316 43.5051C17.0366 40.5928 17.1498 40.0668 18.1464 37.8546C18.879 36.2284 20.1451 34.3143 21.9445 32.1133C26.3804 26.6873 28.1784 24.0201 29.5224 20.8718C32.1689 14.6715 32.6122 8.48548 30.8308 2.60914C30.5213 1.58755 30.2912 0.730381 30.32 0.704627C30.3487 0.678542 30.639 0.770334 30.9651 0.908352Z" fill="#4285F4"/>
<ellipse cx="4.80653" cy="4.66619" rx="4.80653" ry="4.66619" transform="matrix(-1 0 0 1 25.3404 12.3672)" fill="#4FC3F7"/>
<path d="M10.921 3.30727C9.97033 3.30727 9.04104 3.58093 8.25061 4.09366C7.46018 4.60639 6.84411 5.33515 6.48032 6.18778C6.11652 7.04042 6.02134 7.97863 6.2068 8.88379C6.39226 9.78894 6.85004 10.6204 7.52224 11.273C8.19445 11.9255 9.05089 12.3699 9.98326 12.55C10.9156 12.73 11.8821 12.6376 12.7603 12.2845C13.6386 11.9313 14.3893 11.3332 14.9175 10.5659C15.4456 9.7985 15.7275 8.89634 15.7275 7.97346L12.9722 7.97346C12.9722 8.3673 12.8519 8.7523 12.6265 9.07977C12.4011 9.40723 12.0807 9.66246 11.7059 9.81318C11.3311 9.9639 10.9187 10.0033 10.5208 9.9265C10.1229 9.84966 9.75742 9.66001 9.47056 9.38152C9.18369 9.10303 8.98834 8.74822 8.90919 8.36194C8.83005 7.97567 8.87067 7.57528 9.02592 7.21142C9.18117 6.84756 9.44407 6.53656 9.78139 6.31775C10.1187 6.09894 10.5153 5.98216 10.921 5.98216L10.921 3.30727Z" fill="#00BFA5"/>
<path d="M13.5426 29.335C14.1475 29.335 14.7389 29.1608 15.2419 28.8345C15.7449 28.5082 16.137 28.0445 16.3685 27.5019C16.6 26.9593 16.6605 26.3623 16.5425 25.7863C16.4245 25.2103 16.1332 24.6812 15.7054 24.2659C15.2776 23.8506 14.7326 23.5678 14.1393 23.4532C13.546 23.3387 12.931 23.3975 12.3721 23.6222C11.8132 23.847 11.3355 24.2275 10.9994 24.7159C10.6633 25.2042 10.4839 25.7783 10.4839 26.3656L13.5426 26.3656L13.5426 29.335Z" fill="#4285F4"/>
<ellipse cx="2.62174" cy="2.5452" rx="2.62174" ry="2.5452" transform="matrix(-1 0 0 1 5.24338 10.6704)" fill="#39C3CA"/>
<rect width="8.73915" height="8.48398" transform="matrix(-1 0 0 1 27.0887 1.33789)" fill="#1CE9B6"/>
<rect width="5.24349" height="5.09039" transform="matrix(-1 0 0 1 12.2325 15.7612)" fill="#39C3CA"/>
</svg>
