<svg width="147" height="147" viewBox="0 0 147 147" fill="none" xmlns="http://www.w3.org/2000/svg">
<mask id="path-1-outside-1_29_42" maskUnits="userSpaceOnUse" x="-15.8026" y="-17.1909" width="179.605" height="179.605" fill="black">
<rect fill="white" x="-15.8026" y="-17.1909" width="179.605" height="179.605"/>
<path d="M67.6955 78.5388C60.6207 84.4817 53.4672 83.8371 46.2352 76.605L33.6891 64.059C29.9788 60.3486 26.7086 58.5249 23.8787 58.5877C20.9859 58.6506 17.6214 60.6001 13.7852 64.4363L11.71 66.5116L1.71084 56.5125L6.61607 51.6072C13.7852 44.4381 20.4041 40.6491 26.4728 40.2403C32.51 39.863 38.7044 42.8502 45.056 49.2018L55.6683 59.8141C59.3472 63.493 62.4759 65.4582 65.0543 65.7098C67.6012 65.9927 70.3682 64.6407 73.3554 61.6535L86.0429 74.3411C83.0558 77.3282 81.7666 80.6403 82.0496 83.1872C82.3326 85.7971 84.2664 88.4121 87.9767 92.1225L96.9854 101.131C103.18 107.326 106.057 113.41 105.617 119.384C105.176 125.359 101.356 131.946 94.1554 139.147L89.2502 144.052L79.2511 134.053L81.3264 131.977C85.194 128.11 87.1435 124.745 87.1749 121.884C87.2378 119.054 85.4141 115.784 81.7037 112.074L70.2896 100.659C66.8308 97.2007 65.0071 93.8047 64.8184 90.4717C64.6298 87.1387 66.0605 83.6327 69.1105 79.9538L67.6955 78.5388Z"/>
<path d="M69.5455 67.7798C63.6026 60.705 64.2472 53.5515 71.4793 46.3194L84.0253 33.7734C87.7357 30.063 89.5594 26.7929 89.4965 23.963C89.4336 21.0701 87.4841 17.7057 83.648 13.8695L81.5727 11.7942L91.5718 1.79511L96.477 6.70033C103.646 13.8695 107.435 20.4884 107.844 26.5571C108.221 32.5943 105.234 38.7887 98.8825 45.1403L88.2702 55.7526C84.5913 59.4315 82.6261 62.5601 82.3745 65.1385C82.0915 67.6855 83.4436 70.4525 86.4308 73.4397L73.7432 86.1272C70.7561 83.1401 67.989 81.788 65.4421 82.071C62.8322 82.354 59.6721 84.3507 55.9618 88.061L46.9532 97.0696C40.7587 103.264 34.6744 106.141 28.7001 105.701C22.7258 105.261 16.1383 101.44 8.93767 94.2397L4.03245 89.3345L14.0316 79.3354L16.1068 81.4107C19.9744 85.2782 23.3389 87.2278 26.2003 87.2592C29.0302 87.3221 32.3004 85.4983 36.0107 81.788L47.4248 70.3739C50.8836 66.9151 54.2795 65.0914 57.6126 64.9027C60.9456 64.714 64.4516 66.1447 68.1305 69.1948L69.5455 67.7798Z"/>
<path d="M78.8319 68.1571C85.9067 62.2143 93.0601 62.8589 100.292 70.0909L112.838 82.637C116.549 86.3473 119.819 88.1711 122.649 88.1082C125.542 88.0453 128.906 86.0958 132.742 82.2596L134.817 80.1844L144.817 90.1835L139.911 95.0887C132.742 102.258 126.123 106.047 120.055 106.456C114.017 106.833 107.823 103.846 101.471 97.4941L90.8591 86.8819C87.1802 83.203 84.0515 81.2377 81.4731 80.9862C78.9262 80.7032 76.1591 82.0553 73.172 85.0424L60.4844 72.3549C63.4716 69.3677 64.8237 66.6007 64.5407 64.0537C64.2577 61.4439 62.261 58.2838 58.5506 54.5734L49.542 45.5648C43.3476 39.3704 40.4705 33.286 40.9107 27.3117C41.3509 21.3374 45.1713 14.7499 52.3719 7.54932L57.2772 2.6441L67.2763 12.6432L65.201 14.7185C61.3334 18.5861 59.3839 21.9506 59.3525 24.8119C59.2896 27.6419 61.1133 30.912 64.8237 34.6224L76.2377 46.0365C79.6966 49.4953 81.5203 52.8912 81.7089 56.2242C81.8976 59.5573 80.4669 63.0632 77.4169 66.7422L78.8319 68.1571Z"/>
<path d="M79.9271 78.9161C83.1187 87.2644 85.2254 93.1444 77.9934 100.376L65.4473 112.923C61.7369 116.633 59.9132 119.903 59.9761 122.733C60.039 125.626 61.9885 128.99 65.8246 132.826L67.8999 134.902L57.9008 144.901L52.9956 139.996C45.8264 132.826 42.0374 126.207 41.6287 120.139C41.2513 114.102 44.2385 107.907 50.5901 101.556L61.2024 90.9433C64.8813 87.2644 66.8465 84.1358 67.0981 81.5574C67.3811 79.0104 66.029 76.2434 63.0419 73.2562L75.7294 60.5687C78.7166 63.5559 81.4836 64.9079 84.0306 64.6249C86.6404 64.3419 89.8005 62.3453 93.5108 58.6349L102.519 49.6263C108.714 43.4319 114.798 40.5548 120.773 40.995C126.747 41.4352 133.334 45.2556 140.535 52.4562L145.44 57.3614L135.441 67.3605L133.366 65.2853C129.498 61.4177 126.134 59.4682 123.272 59.4367C120.442 59.3738 117.172 61.1976 113.462 64.9079L102.048 76.322C98.589 79.7808 95.1931 81.6046 91.86 81.7932C88.527 81.9819 85.021 80.5512 81.3421 77.5011L79.9271 78.9161Z"/>
</mask>
<path d="M67.6955 78.5388C60.6207 84.4817 53.4672 83.8371 46.2352 76.605L33.6891 64.059C29.9788 60.3486 26.7086 58.5249 23.8787 58.5877C20.9859 58.6506 17.6214 60.6001 13.7852 64.4363L11.71 66.5116L1.71084 56.5125L6.61607 51.6072C13.7852 44.4381 20.4041 40.6491 26.4728 40.2403C32.51 39.863 38.7044 42.8502 45.056 49.2018L55.6683 59.8141C59.3472 63.493 62.4759 65.4582 65.0543 65.7098C67.6012 65.9927 70.3682 64.6407 73.3554 61.6535L86.0429 74.3411C83.0558 77.3282 81.7666 80.6403 82.0496 83.1872C82.3326 85.7971 84.2664 88.4121 87.9767 92.1225L96.9854 101.131C103.18 107.326 106.057 113.41 105.617 119.384C105.176 125.359 101.356 131.946 94.1554 139.147L89.2502 144.052L79.2511 134.053L81.3264 131.977C85.194 128.11 87.1435 124.745 87.1749 121.884C87.2378 119.054 85.4141 115.784 81.7037 112.074L70.2896 100.659C66.8308 97.2007 65.0071 93.8047 64.8184 90.4717C64.6298 87.1387 66.0605 83.6327 69.1105 79.9538L67.6955 78.5388Z" stroke="#F4F4F4" stroke-width="2" mask="url(#path-1-outside-1_29_42)"/>
<path d="M69.5455 67.7798C63.6026 60.705 64.2472 53.5515 71.4793 46.3194L84.0253 33.7734C87.7357 30.063 89.5594 26.7929 89.4965 23.963C89.4336 21.0701 87.4841 17.7057 83.648 13.8695L81.5727 11.7942L91.5718 1.79511L96.477 6.70033C103.646 13.8695 107.435 20.4884 107.844 26.5571C108.221 32.5943 105.234 38.7887 98.8825 45.1403L88.2702 55.7526C84.5913 59.4315 82.6261 62.5601 82.3745 65.1385C82.0915 67.6855 83.4436 70.4525 86.4308 73.4397L73.7432 86.1272C70.7561 83.1401 67.989 81.788 65.4421 82.071C62.8322 82.354 59.6721 84.3507 55.9618 88.061L46.9532 97.0696C40.7587 103.264 34.6744 106.141 28.7001 105.701C22.7258 105.261 16.1383 101.44 8.93767 94.2397L4.03245 89.3345L14.0316 79.3354L16.1068 81.4107C19.9744 85.2782 23.3389 87.2278 26.2003 87.2592C29.0302 87.3221 32.3004 85.4983 36.0107 81.788L47.4248 70.3739C50.8836 66.9151 54.2795 65.0914 57.6126 64.9027C60.9456 64.714 64.4516 66.1447 68.1305 69.1948L69.5455 67.7798Z" stroke="#F4F4F4" stroke-width="2" mask="url(#path-1-outside-1_29_42)"/>
<path d="M78.8319 68.1571C85.9067 62.2143 93.0601 62.8589 100.292 70.0909L112.838 82.637C116.549 86.3473 119.819 88.1711 122.649 88.1082C125.542 88.0453 128.906 86.0958 132.742 82.2596L134.817 80.1844L144.817 90.1835L139.911 95.0887C132.742 102.258 126.123 106.047 120.055 106.456C114.017 106.833 107.823 103.846 101.471 97.4941L90.8591 86.8819C87.1802 83.203 84.0515 81.2377 81.4731 80.9862C78.9262 80.7032 76.1591 82.0553 73.172 85.0424L60.4844 72.3549C63.4716 69.3677 64.8237 66.6007 64.5407 64.0537C64.2577 61.4439 62.261 58.2838 58.5506 54.5734L49.542 45.5648C43.3476 39.3704 40.4705 33.286 40.9107 27.3117C41.3509 21.3374 45.1713 14.7499 52.3719 7.54932L57.2772 2.6441L67.2763 12.6432L65.201 14.7185C61.3334 18.5861 59.3839 21.9506 59.3525 24.8119C59.2896 27.6419 61.1133 30.912 64.8237 34.6224L76.2377 46.0365C79.6966 49.4953 81.5203 52.8912 81.7089 56.2242C81.8976 59.5573 80.4669 63.0632 77.4169 66.7422L78.8319 68.1571Z" stroke="#F4F4F4" stroke-width="2" mask="url(#path-1-outside-1_29_42)"/>
<path d="M79.9271 78.9161C83.1187 87.2644 85.2254 93.1444 77.9934 100.376L65.4473 112.923C61.7369 116.633 59.9132 119.903 59.9761 122.733C60.039 125.626 61.9885 128.99 65.8246 132.826L67.8999 134.902L57.9008 144.901L52.9956 139.996C45.8264 132.826 42.0374 126.207 41.6287 120.139C41.2513 114.102 44.2385 107.907 50.5901 101.556L61.2024 90.9433C64.8813 87.2644 66.8465 84.1358 67.0981 81.5574C67.3811 79.0104 66.029 76.2434 63.0419 73.2562L75.7294 60.5687C78.7166 63.5559 81.4836 64.9079 84.0306 64.6249C86.6404 64.3419 89.8005 62.3453 93.5108 58.6349L102.519 49.6263C108.714 43.4319 114.798 40.5548 120.773 40.995C126.747 41.4352 133.334 45.2556 140.535 52.4562L145.44 57.3614L135.441 67.3605L133.366 65.2853C129.498 61.4177 126.134 59.4682 123.272 59.4367C120.442 59.3738 117.172 61.1976 113.462 64.9079L102.048 76.322C98.589 79.7808 95.1931 81.6046 91.86 81.7932C88.527 81.9819 85.021 80.5512 81.3421 77.5011L79.9271 78.9161Z" stroke="#F4F4F4" stroke-width="2" mask="url(#path-1-outside-1_29_42)"/>
</svg>
