<svg width="222" height="223" viewBox="0 0 222 223" fill="none" xmlns="http://www.w3.org/2000/svg">
<mask id="path-1-outside-1_29_41" maskUnits="userSpaceOnUse" x="-8.74228e-08" y="0.00321554" width="222" height="222" fill="black">
<rect fill="white" x="-8.74228e-08" y="0.00321554" width="222" height="222"/>
<path d="M110.53 126.226C109.122 142.426 99.4169 150.527 81.4162 150.527L50.1889 150.527C40.9538 150.527 34.6144 152.327 31.1708 155.927C27.6489 159.605 25.8879 166.218 25.8879 175.767L25.8879 180.932L1 180.932L1 168.723C1.00001 150.879 4.52187 137.926 11.5656 129.865C18.6094 121.882 30.0359 117.89 45.8453 117.89L72.2593 117.89C81.4162 117.89 87.7556 116.443 91.2775 113.547C94.7994 110.729 96.5603 105.603 96.5603 98.1679L128.14 98.1679C128.14 105.603 130.657 111.329 134.179 114.147C137.779 117.043 143.44 117.89 152.676 117.89L175.098 117.89C190.516 117.89 201.669 121.882 208.556 129.865C215.443 137.848 218.887 150.8 218.887 168.723L218.887 180.932L193.999 180.932L193.999 175.767C193.999 166.14 192.238 159.527 188.716 155.927C185.273 152.327 178.933 150.527 169.698 150.527L141.288 150.527C132.679 150.527 126.183 148.57 121.8 144.657C117.418 140.744 114.835 134.6 114.052 126.226L110.53 126.226Z"/>
<path d="M99.443 110.534C83.2424 109.125 75.1421 99.4202 75.1421 81.4195L75.1421 50.1921C75.1421 40.957 73.342 34.6176 69.7419 31.174C66.0635 27.6521 59.4502 25.8912 49.902 25.8912L44.7365 25.8912L44.7365 1.00322L56.9457 1.00322C74.7899 1.00322 87.7426 4.52509 95.8038 11.5689C103.787 18.6126 107.778 30.0392 107.778 45.8485L107.778 72.2626C107.778 81.4195 109.226 87.7588 112.122 91.2807C114.939 94.8026 120.066 96.5635 127.501 96.5635L127.501 128.143C120.066 128.143 114.939 129.904 112.122 133.426C109.226 137.026 107.778 143.444 107.778 152.679L107.778 175.101C107.778 190.519 103.787 201.672 95.8038 208.559C87.8208 215.446 74.8681 218.89 56.9457 218.89L44.7365 218.89L44.7365 194.002L49.9019 194.002C59.5284 194.002 66.1417 192.241 69.7419 188.719C73.342 185.276 75.1421 178.936 75.1421 169.701L75.1421 141.291C75.1421 132.682 77.0987 126.186 81.0119 121.804C84.9251 117.421 91.0688 114.838 99.443 114.056L99.443 110.534Z"/>
<path d="M111.47 99.4463C112.878 83.2456 122.583 75.1453 140.584 75.1453L171.811 75.1453C181.046 75.1453 187.386 73.3452 190.829 69.7451C194.351 66.0667 196.112 59.4534 196.112 49.9052L196.112 44.7397L221 44.7397L221 56.9489C221 74.7931 217.478 87.7458 210.434 95.807C203.391 103.79 191.964 107.781 176.155 107.781L149.741 107.781C140.584 107.781 134.244 109.229 130.723 112.125C127.201 114.943 125.44 120.069 125.44 127.504L93.8602 127.504C93.8602 120.069 92.0993 114.943 88.5774 112.125C84.9772 109.229 78.5596 107.781 69.3245 107.781L46.9018 107.781C31.4838 107.781 20.3312 103.79 13.444 95.807C6.55676 87.8241 3.11314 74.8714 3.11314 56.9489L3.11314 44.7397L28.0011 44.7397L28.0011 49.9052C28.0011 59.5316 29.762 66.1449 33.2839 69.7451C36.7275 73.3452 43.0669 75.1453 52.302 75.1453L80.7119 75.1453C89.3209 75.1453 95.8168 77.1019 100.2 81.0151C104.582 84.9283 107.165 91.072 107.948 99.4463L111.47 99.4463Z"/>
<path d="M126.222 111.473C140.584 117.89 150.523 122.586 150.523 140.587L150.523 171.814C150.523 181.049 152.323 187.389 155.923 190.832C159.602 194.354 166.215 196.115 175.763 196.115L180.929 196.115L180.929 221.003L168.72 221.003C150.875 221.003 137.923 217.481 129.862 210.438C121.879 203.394 117.887 191.967 117.887 176.158L117.887 149.744C117.887 140.587 116.439 134.248 113.544 130.726C110.726 127.204 105.6 125.443 98.1647 125.443L98.1647 93.8634C105.6 93.8634 110.726 92.1025 113.544 88.5806C116.439 84.9804 117.887 78.5628 117.887 69.3277L117.887 46.905C117.887 31.487 121.879 20.3344 129.862 13.4472C137.845 6.55998 150.797 3.11636 168.72 3.11636L180.929 3.11636L180.929 28.0043L175.763 28.0043C166.137 28.0043 159.524 29.7652 155.924 33.2871C152.323 36.7307 150.523 43.0701 150.523 52.3053L150.523 80.7151C150.523 89.3241 148.567 95.82 144.653 100.203C140.74 104.586 134.597 107.168 126.222 107.951L126.222 111.473Z"/>
</mask>
<path d="M110.53 126.226C109.122 142.426 99.4169 150.527 81.4162 150.527L50.1889 150.527C40.9538 150.527 34.6144 152.327 31.1708 155.927C27.6489 159.605 25.8879 166.218 25.8879 175.767L25.8879 180.932L1 180.932L1 168.723C1.00001 150.879 4.52187 137.926 11.5656 129.865C18.6094 121.882 30.0359 117.89 45.8453 117.89L72.2593 117.89C81.4162 117.89 87.7556 116.443 91.2775 113.547C94.7994 110.729 96.5603 105.603 96.5603 98.1679L128.14 98.1679C128.14 105.603 130.657 111.329 134.179 114.147C137.779 117.043 143.44 117.89 152.676 117.89L175.098 117.89C190.516 117.89 201.669 121.882 208.556 129.865C215.443 137.848 218.887 150.8 218.887 168.723L218.887 180.932L193.999 180.932L193.999 175.767C193.999 166.14 192.238 159.527 188.716 155.927C185.273 152.327 178.933 150.527 169.698 150.527L141.288 150.527C132.679 150.527 126.183 148.57 121.8 144.657C117.418 140.744 114.835 134.6 114.052 126.226L110.53 126.226Z" stroke="#1D4CF2" stroke-width="2" mask="url(#path-1-outside-1_29_41)"/>
<path d="M99.443 110.534C83.2424 109.125 75.1421 99.4202 75.1421 81.4195L75.1421 50.1921C75.1421 40.957 73.342 34.6176 69.7419 31.174C66.0635 27.6521 59.4502 25.8912 49.902 25.8912L44.7365 25.8912L44.7365 1.00322L56.9457 1.00322C74.7899 1.00322 87.7426 4.52509 95.8038 11.5689C103.787 18.6126 107.778 30.0392 107.778 45.8485L107.778 72.2626C107.778 81.4195 109.226 87.7588 112.122 91.2807C114.939 94.8026 120.066 96.5635 127.501 96.5635L127.501 128.143C120.066 128.143 114.939 129.904 112.122 133.426C109.226 137.026 107.778 143.444 107.778 152.679L107.778 175.101C107.778 190.519 103.787 201.672 95.8038 208.559C87.8208 215.446 74.8681 218.89 56.9457 218.89L44.7365 218.89L44.7365 194.002L49.9019 194.002C59.5284 194.002 66.1417 192.241 69.7419 188.719C73.342 185.276 75.1421 178.936 75.1421 169.701L75.1421 141.291C75.1421 132.682 77.0987 126.186 81.0119 121.804C84.9251 117.421 91.0688 114.838 99.443 114.056L99.443 110.534Z" stroke="#1D4CF2" stroke-width="2" mask="url(#path-1-outside-1_29_41)"/>
<path d="M111.47 99.4463C112.878 83.2456 122.583 75.1453 140.584 75.1453L171.811 75.1453C181.046 75.1453 187.386 73.3452 190.829 69.7451C194.351 66.0667 196.112 59.4534 196.112 49.9052L196.112 44.7397L221 44.7397L221 56.9489C221 74.7931 217.478 87.7458 210.434 95.807C203.391 103.79 191.964 107.781 176.155 107.781L149.741 107.781C140.584 107.781 134.244 109.229 130.723 112.125C127.201 114.943 125.44 120.069 125.44 127.504L93.8602 127.504C93.8602 120.069 92.0993 114.943 88.5774 112.125C84.9772 109.229 78.5596 107.781 69.3245 107.781L46.9018 107.781C31.4838 107.781 20.3312 103.79 13.444 95.807C6.55676 87.8241 3.11314 74.8714 3.11314 56.9489L3.11314 44.7397L28.0011 44.7397L28.0011 49.9052C28.0011 59.5316 29.762 66.1449 33.2839 69.7451C36.7275 73.3452 43.0669 75.1453 52.302 75.1453L80.7119 75.1453C89.3209 75.1453 95.8168 77.1019 100.2 81.0151C104.582 84.9283 107.165 91.072 107.948 99.4463L111.47 99.4463Z" stroke="#1D4CF2" stroke-width="2" mask="url(#path-1-outside-1_29_41)"/>
<path d="M126.222 111.473C140.584 117.89 150.523 122.586 150.523 140.587L150.523 171.814C150.523 181.049 152.323 187.389 155.923 190.832C159.602 194.354 166.215 196.115 175.763 196.115L180.929 196.115L180.929 221.003L168.72 221.003C150.875 221.003 137.923 217.481 129.862 210.438C121.879 203.394 117.887 191.967 117.887 176.158L117.887 149.744C117.887 140.587 116.439 134.248 113.544 130.726C110.726 127.204 105.6 125.443 98.1647 125.443L98.1647 93.8634C105.6 93.8634 110.726 92.1025 113.544 88.5806C116.439 84.9804 117.887 78.5628 117.887 69.3277L117.887 46.905C117.887 31.487 121.879 20.3344 129.862 13.4472C137.845 6.55998 150.797 3.11636 168.72 3.11636L180.929 3.11636L180.929 28.0043L175.763 28.0043C166.137 28.0043 159.524 29.7652 155.924 33.2871C152.323 36.7307 150.523 43.0701 150.523 52.3053L150.523 80.7151C150.523 89.3241 148.567 95.82 144.653 100.203C140.74 104.586 134.597 107.168 126.222 107.951L126.222 111.473Z" stroke="#1D4CF2" stroke-width="2" mask="url(#path-1-outside-1_29_41)"/>
</svg>
