<svg width="179" height="178" viewBox="0 0 179 178" fill="none" xmlns="http://www.w3.org/2000/svg">
<mask id="path-1-outside-1_29_43" maskUnits="userSpaceOnUse" x="-18.8944" y="-20.9605" width="217.789" height="217.789" fill="black">
<rect fill="white" x="-18.8944" y="-20.9605" width="217.789" height="217.789"/>
<path d="M82.4346 95.0466C73.9448 102.178 65.3607 101.404 56.6822 92.726L41.627 77.6708C37.1745 73.2183 33.2503 71.0298 29.8544 71.1053C26.383 71.1808 22.3457 73.5202 17.7423 78.1235L15.252 80.6139L3.25302 68.615L9.13928 62.7287C17.7423 54.1257 25.685 49.5789 32.9673 49.0884C40.212 48.6356 47.6453 52.2202 55.2673 59.8422L68.002 72.5769C72.4167 76.9916 76.171 79.3498 79.2651 79.6517C82.3214 79.9913 85.6419 78.3688 89.2265 74.7842L104.452 90.0093C100.867 93.5939 99.3199 97.5684 99.6595 100.625C99.9991 103.756 102.32 106.895 106.772 111.347L117.582 122.157C125.016 129.591 128.468 136.892 127.94 144.061C127.412 151.23 122.827 159.135 114.187 167.776L108.3 173.662L96.3013 161.663L98.7917 159.173C103.433 154.532 105.772 150.494 105.81 147.061C105.885 143.665 103.697 139.741 99.2445 135.288L85.5476 121.591C81.397 117.441 79.2085 113.366 78.9821 109.366C78.7557 105.366 80.4725 101.159 84.1326 96.7445L82.4346 95.0466Z"/>
<path d="M84.6546 82.1358C77.5231 73.646 78.2966 65.0618 86.9751 56.3833L102.03 41.3281C106.483 36.8757 108.671 32.9515 108.596 29.5556C108.52 26.0842 106.181 22.0468 101.578 17.4434L99.0872 14.9531L111.086 2.95415L116.972 8.84041C125.575 17.4434 130.122 25.3861 130.613 32.6685C131.066 39.9131 127.481 47.3464 119.859 54.9684L107.124 67.7031C102.71 72.1178 100.351 75.8722 100.049 78.9662C99.7098 82.0226 101.332 85.343 104.917 88.9276L89.6919 104.153C86.1073 100.568 82.7868 98.9456 79.7305 99.2852C76.5987 99.6248 72.8066 102.021 68.3541 106.473L57.5438 117.284C50.1105 124.717 42.8093 128.169 35.6401 127.641C28.4709 127.113 20.5659 122.528 11.9252 113.888L6.03894 108.001L18.0379 96.0025L20.5282 98.4928C25.1693 103.134 29.2067 105.473 32.6403 105.511C36.0363 105.587 39.9604 103.398 44.4129 98.9456L58.1098 85.2487C62.2603 81.0981 66.3354 78.9096 70.3351 78.6833C74.3347 78.4569 78.5419 80.1737 82.9566 83.8337L84.6546 82.1358Z"/>
<path d="M95.7982 82.5886C104.288 75.4571 112.872 76.2306 121.551 84.9091L136.606 99.9644C141.058 104.417 144.983 106.605 148.378 106.53C151.85 106.454 155.887 104.115 160.491 99.5116L162.981 97.0212L174.98 109.02L169.094 114.906C160.491 123.509 152.548 128.056 145.265 128.547C138.021 129 130.588 125.415 122.966 117.793L110.231 105.058C105.816 100.644 102.062 98.2853 98.9677 97.9834C95.9114 97.6438 92.591 99.2663 89.0064 102.851L73.7813 87.6258C77.3659 84.0413 78.9884 80.7208 78.6488 77.6645C78.3092 74.5327 75.9132 70.7406 71.4608 66.2881L60.6504 55.4778C53.2171 48.0445 49.7646 40.7432 50.2928 33.5741C50.8211 26.4049 55.4056 18.4999 64.0463 9.8592L69.9326 3.97293L81.9315 15.9719L79.4412 18.4622C74.8001 23.1033 72.4607 27.1407 72.4229 30.5743C72.3475 33.9703 74.536 37.8944 78.9884 42.3469L92.6853 56.0438C96.8359 60.1943 99.0243 64.2694 99.2507 68.2691C99.4771 72.2687 97.7603 76.4759 94.1003 80.8906L95.7982 82.5886Z"/>
<path d="M97.1126 95.4993C100.942 105.517 103.47 112.573 94.792 121.252L79.7368 136.307C75.2843 140.759 73.0958 144.684 73.1713 148.08C73.2468 151.551 75.5862 155.588 80.1895 160.192L82.6799 162.682L70.681 174.681L64.7947 168.795C56.1917 160.192 51.6449 152.249 51.1544 144.967C50.7016 137.722 54.2862 130.289 61.9082 122.667L74.6429 109.932C79.0576 105.517 81.4159 101.763 81.7177 98.6689C82.0573 95.6125 80.4348 92.2921 76.8502 88.7075L92.0753 73.4824C95.6599 77.067 98.9803 78.6895 102.037 78.3499C105.168 78.0103 108.961 75.6143 113.413 71.1619L124.223 60.3515C131.657 52.9182 138.958 49.4657 146.127 49.994C153.296 50.5222 161.201 55.1067 169.842 63.7475L175.728 69.6337L163.729 81.6327L161.239 79.1423C156.598 74.5012 152.56 72.1618 149.127 72.1241C145.731 72.0486 141.807 74.2371 137.354 78.6895L123.657 92.3864C119.507 96.537 115.432 98.7255 111.432 98.9519C107.432 99.1783 103.225 97.4614 98.8105 93.8014L97.1126 95.4993Z"/>
</mask>
<path d="M82.4346 95.0466C73.9448 102.178 65.3607 101.404 56.6822 92.726L41.627 77.6708C37.1745 73.2183 33.2503 71.0298 29.8544 71.1053C26.383 71.1808 22.3457 73.5202 17.7423 78.1235L15.252 80.6139L3.25302 68.615L9.13928 62.7287C17.7423 54.1257 25.685 49.5789 32.9673 49.0884C40.212 48.6356 47.6453 52.2202 55.2673 59.8422L68.002 72.5769C72.4167 76.9916 76.171 79.3498 79.2651 79.6517C82.3214 79.9913 85.6419 78.3688 89.2265 74.7842L104.452 90.0093C100.867 93.5939 99.3199 97.5684 99.6595 100.625C99.9991 103.756 102.32 106.895 106.772 111.347L117.582 122.157C125.016 129.591 128.468 136.892 127.94 144.061C127.412 151.23 122.827 159.135 114.187 167.776L108.3 173.662L96.3013 161.663L98.7917 159.173C103.433 154.532 105.772 150.494 105.81 147.061C105.885 143.665 103.697 139.741 99.2445 135.288L85.5476 121.591C81.397 117.441 79.2085 113.366 78.9821 109.366C78.7557 105.366 80.4725 101.159 84.1326 96.7445L82.4346 95.0466Z" stroke="#CA0088" stroke-width="4" mask="url(#path-1-outside-1_29_43)"/>
<path d="M84.6546 82.1358C77.5231 73.646 78.2966 65.0618 86.9751 56.3833L102.03 41.3281C106.483 36.8757 108.671 32.9515 108.596 29.5556C108.52 26.0842 106.181 22.0468 101.578 17.4434L99.0872 14.9531L111.086 2.95415L116.972 8.84041C125.575 17.4434 130.122 25.3861 130.613 32.6685C131.066 39.9131 127.481 47.3464 119.859 54.9684L107.124 67.7031C102.71 72.1178 100.351 75.8722 100.049 78.9662C99.7098 82.0226 101.332 85.343 104.917 88.9276L89.6919 104.153C86.1073 100.568 82.7868 98.9456 79.7305 99.2852C76.5987 99.6248 72.8066 102.021 68.3541 106.473L57.5438 117.284C50.1105 124.717 42.8093 128.169 35.6401 127.641C28.4709 127.113 20.5659 122.528 11.9252 113.888L6.03894 108.001L18.0379 96.0025L20.5282 98.4928C25.1693 103.134 29.2067 105.473 32.6403 105.511C36.0363 105.587 39.9604 103.398 44.4129 98.9456L58.1098 85.2487C62.2603 81.0981 66.3354 78.9096 70.3351 78.6833C74.3347 78.4569 78.5419 80.1737 82.9566 83.8337L84.6546 82.1358Z" stroke="#CA0088" stroke-width="4" mask="url(#path-1-outside-1_29_43)"/>
<path d="M95.7982 82.5886C104.288 75.4571 112.872 76.2306 121.551 84.9091L136.606 99.9644C141.058 104.417 144.983 106.605 148.378 106.53C151.85 106.454 155.887 104.115 160.491 99.5116L162.981 97.0212L174.98 109.02L169.094 114.906C160.491 123.509 152.548 128.056 145.265 128.547C138.021 129 130.588 125.415 122.966 117.793L110.231 105.058C105.816 100.644 102.062 98.2853 98.9677 97.9834C95.9114 97.6438 92.591 99.2663 89.0064 102.851L73.7813 87.6258C77.3659 84.0413 78.9884 80.7208 78.6488 77.6645C78.3092 74.5327 75.9132 70.7406 71.4608 66.2881L60.6504 55.4778C53.2171 48.0445 49.7646 40.7432 50.2928 33.5741C50.8211 26.4049 55.4056 18.4999 64.0463 9.8592L69.9326 3.97293L81.9315 15.9719L79.4412 18.4622C74.8001 23.1033 72.4607 27.1407 72.4229 30.5743C72.3475 33.9703 74.536 37.8944 78.9884 42.3469L92.6853 56.0438C96.8359 60.1943 99.0243 64.2694 99.2507 68.2691C99.4771 72.2687 97.7603 76.4759 94.1003 80.8906L95.7982 82.5886Z" stroke="#CA0088" stroke-width="4" mask="url(#path-1-outside-1_29_43)"/>
<path d="M97.1126 95.4993C100.942 105.517 103.47 112.573 94.792 121.252L79.7368 136.307C75.2843 140.759 73.0958 144.684 73.1713 148.08C73.2468 151.551 75.5862 155.588 80.1895 160.192L82.6799 162.682L70.681 174.681L64.7947 168.795C56.1917 160.192 51.6449 152.249 51.1544 144.967C50.7016 137.722 54.2862 130.289 61.9082 122.667L74.6429 109.932C79.0576 105.517 81.4159 101.763 81.7177 98.6689C82.0573 95.6125 80.4348 92.2921 76.8502 88.7075L92.0753 73.4824C95.6599 77.067 98.9803 78.6895 102.037 78.3499C105.168 78.0103 108.961 75.6143 113.413 71.1619L124.223 60.3515C131.657 52.9182 138.958 49.4657 146.127 49.994C153.296 50.5222 161.201 55.1067 169.842 63.7475L175.728 69.6337L163.729 81.6327L161.239 79.1423C156.598 74.5012 152.56 72.1618 149.127 72.1241C145.731 72.0486 141.807 74.2371 137.354 78.6895L123.657 92.3864C119.507 96.537 115.432 98.7255 111.432 98.9519C107.432 99.1783 103.225 97.4614 98.8105 93.8014L97.1126 95.4993Z" stroke="#CA0088" stroke-width="4" mask="url(#path-1-outside-1_29_43)"/>
</svg>
