<svg width="23" height="25" viewBox="0 0 23 25" fill="none" xmlns="http://www.w3.org/2000/svg">
<g clip-path="url(#clip0_56_125)">
<path d="M10.1952 0.000170655C9.34429 0.00412445 8.53169 0.0766954 7.81668 0.203216C5.71035 0.575335 5.32792 1.35421 5.32792 2.7906V4.68762H10.3054V5.31996H5.32792H3.4599C2.0133 5.31996 0.746609 6.18946 0.350405 7.84353C-0.106611 9.73948 -0.126882 10.9226 0.350405 12.9023C0.704225 14.3759 1.54919 15.4258 2.9958 15.4258H4.70718V13.1517C4.70718 11.5088 6.12867 10.0596 7.81668 10.0596H12.7884C14.1723 10.0596 15.2771 8.92013 15.2771 7.53026V2.7906C15.2771 1.44166 14.1392 0.428348 12.7884 0.203216C11.9333 0.0608801 11.0461 -0.0037832 10.1952 0.000170655ZM7.50341 1.52591C8.01755 1.52591 8.43742 1.95264 8.43742 2.47733C8.43742 3.00015 8.01755 3.42294 7.50341 3.42294C6.98742 3.42294 6.5694 3.00015 6.5694 2.47733C6.5694 1.95264 6.98742 1.52591 7.50341 1.52591Z" fill="url(#paint0_linear_56_125)"/>
<path d="M15.8979 5.32007V7.53036C15.8979 9.24398 14.4451 10.6863 12.7884 10.6863H7.81667C6.45483 10.6863 5.32791 11.8518 5.32791 13.2156V17.9553C5.32791 19.3042 6.5009 20.0977 7.81667 20.4847C9.39227 20.948 10.9032 21.0317 12.7884 20.4847C14.0415 20.1218 15.2771 19.3917 15.2771 17.9553V16.0583H10.3054V15.4259H15.2771H17.7659C19.2125 15.4259 19.7516 14.4169 20.2547 12.9024C20.7743 11.3432 20.7522 9.84378 20.2547 7.84363C19.8971 6.40353 19.2143 5.32007 17.7659 5.32007H15.8979ZM13.1017 17.323C13.6176 17.323 14.0357 17.7457 14.0357 18.2686C14.0357 18.7933 13.6176 19.22 13.1017 19.22C12.5875 19.22 12.1676 18.7933 12.1676 18.2686C12.1676 17.7457 12.5875 17.323 13.1017 17.323Z" fill="url(#paint1_linear_56_125)"/>
<path opacity="0.44382" d="M10.3619 24.9999C14.0458 24.9999 17.0322 24.4208 17.0322 23.7065C17.0322 22.9922 14.0458 22.4131 10.3619 22.4131C6.67801 22.4131 3.69162 22.9922 3.69162 23.7065C3.69162 24.4208 6.67801 24.9999 10.3619 24.9999Z" fill="url(#paint2_radial_56_125)"/>
</g>
<defs>
<linearGradient id="paint0_linear_56_125" x1="-6.19829e-08" y1="-5.38428e-08" x2="11.4776" y2="9.78051" gradientUnits="userSpaceOnUse">
<stop stop-color="#5A9FD4"/>
<stop offset="1" stop-color="#306998"/>
</linearGradient>
<linearGradient id="paint1_linear_56_125" x1="12.982" y1="18.1091" x2="8.86431" y2="12.3389" gradientUnits="userSpaceOnUse">
<stop stop-color="#FFD43B"/>
<stop offset="1" stop-color="#FFE873"/>
</linearGradient>
<radialGradient id="paint2_radial_56_125" cx="0" cy="0" r="1" gradientUnits="userSpaceOnUse" gradientTransform="translate(10.3619 23.7065) rotate(-90) scale(1.29342 5.68514)">
<stop stop-color="#B8B8B8" stop-opacity="0.498039"/>
<stop offset="1" stop-color="#7F7F7F" stop-opacity="0"/>
</radialGradient>
<clipPath id="clip0_56_125">
<rect width="22.7894" height="25" fill="white"/>
</clipPath>
</defs>
</svg>
