<svg width="194" height="35" viewBox="0 0 194 35" fill="none" xmlns="http://www.w3.org/2000/svg">
<path d="M47.9408 12.733C49.1381 13.1122 50.076 13.7508 50.7545 14.6488C51.433 15.5269 51.7723 16.6144 51.7723 17.9116C51.7723 19.7475 51.0539 21.1644 49.617 22.1622C48.2002 23.14 46.1248 23.6289 43.3908 23.6289H32.5548V2.67529H42.7922C45.3465 2.67529 47.3022 3.16421 48.6592 4.14205C50.0361 5.11988 50.7246 6.44695 50.7246 8.12324C50.7246 9.14098 50.4752 10.049 49.9763 10.8472C49.4973 11.6454 48.8188 12.274 47.9408 12.733ZM37.3741 6.32721V11.2663H42.1935C43.3908 11.2663 44.2988 11.0567 44.9174 10.6377C45.5361 10.2186 45.8454 9.59997 45.8454 8.78178C45.8454 7.96359 45.5361 7.35494 44.9174 6.95582C44.2988 6.53675 43.3908 6.32721 42.1935 6.32721H37.3741ZM43.0316 19.977C44.3088 19.977 45.2667 19.7675 45.9053 19.3484C46.5638 18.9293 46.8931 18.2808 46.8931 17.4027C46.8931 15.6665 45.6059 14.7985 43.0316 14.7985H37.3741V19.977H43.0316Z" fill="#F4F4F4"/>
<path d="M62.7774 23.8684C61.0811 23.8684 59.5545 23.5192 58.1975 22.8207C56.8605 22.1023 55.8128 21.1145 55.0545 19.8573C54.2961 18.6 53.917 17.1732 53.917 15.5767C53.917 13.9803 54.2961 12.5534 55.0545 11.2962C55.8128 10.039 56.8605 9.06116 58.1975 8.36271C59.5545 7.6443 61.0811 7.28509 62.7774 7.28509C64.4736 7.28509 65.9903 7.6443 67.3273 8.36271C68.6643 9.06116 69.712 10.039 70.4703 11.2962C71.2287 12.5534 71.6078 13.9803 71.6078 15.5767C71.6078 17.1732 71.2287 18.6 70.4703 19.8573C69.712 21.1145 68.6643 22.1023 67.3273 22.8207C65.9903 23.5192 64.4736 23.8684 62.7774 23.8684ZM62.7774 20.0369C63.9747 20.0369 64.9526 19.6378 65.7109 18.8395C66.4892 18.0213 66.8783 16.9337 66.8783 15.5767C66.8783 14.2197 66.4892 13.1421 65.7109 12.3439C64.9526 11.5257 63.9747 11.1166 62.7774 11.1166C61.58 11.1166 60.5922 11.5257 59.8139 12.3439C59.0357 13.1421 58.6465 14.2197 58.6465 15.5767C58.6465 16.9337 59.0357 18.0213 59.8139 18.8395C60.5922 19.6378 61.58 20.0369 62.7774 20.0369Z" fill="#F4F4F4"/>
<path d="M82.3922 23.8684C80.6959 23.8684 79.1693 23.5192 77.8123 22.8207C76.4753 22.1023 75.4276 21.1145 74.6693 19.8573C73.9109 18.6 73.5318 17.1732 73.5318 15.5767C73.5318 13.9803 73.9109 12.5534 74.6693 11.2962C75.4276 10.039 76.4753 9.06116 77.8123 8.36271C79.1693 7.6443 80.6959 7.28509 82.3922 7.28509C84.0884 7.28509 85.6051 7.6443 86.9421 8.36271C88.2791 9.06116 89.3268 10.039 90.0851 11.2962C90.8435 12.5534 91.2226 13.9803 91.2226 15.5767C91.2226 17.1732 90.8435 18.6 90.0851 19.8573C89.3268 21.1145 88.2791 22.1023 86.9421 22.8207C85.6051 23.5192 84.0884 23.8684 82.3922 23.8684ZM82.3922 20.0369C83.5895 20.0369 84.5674 19.6378 85.3257 18.8395C86.104 18.0213 86.4931 16.9337 86.4931 15.5767C86.4931 14.2197 86.104 13.1421 85.3257 12.3439C84.5674 11.5257 83.5895 11.1166 82.3922 11.1166C81.1948 11.1166 80.207 11.5257 79.4287 12.3439C78.6505 13.1421 78.2613 14.2197 78.2613 15.5767C78.2613 16.9337 78.6505 18.0213 79.4287 18.8395C80.207 19.6378 81.1948 20.0369 82.3922 20.0369Z" fill="#F4F4F4"/>
<path d="M104.042 22.8506C103.583 23.1899 103.015 23.4493 102.336 23.6289C101.678 23.7886 100.989 23.8684 100.271 23.8684C98.3351 23.8684 96.8484 23.3795 95.8107 22.4016C94.773 21.4238 94.2541 19.987 94.2541 18.0912V7.88377H98.9238H102.905V11.4758H98.9238V18.0313C98.9238 18.7098 99.0934 19.2386 99.4327 19.6178C99.7719 19.977 100.261 20.1566 100.899 20.1566C101.618 20.1566 102.256 19.957 102.815 19.5579L104.042 22.8506Z" fill="#F4F4F4"/>
<path d="M113.966 23.8684C112.25 23.8684 110.703 23.5192 109.326 22.8207C107.969 22.1023 106.901 21.1145 106.123 19.8573C105.365 18.6 104.986 17.1732 104.986 15.5767C104.986 13.9803 105.365 12.5534 106.123 11.2962C106.901 10.039 107.969 9.06116 109.326 8.36271C110.703 7.6443 112.25 7.28509 113.966 7.28509C115.662 7.28509 117.139 7.6443 118.396 8.36271C119.673 9.06116 120.601 10.0689 121.18 11.386L117.558 13.3317C116.72 11.855 115.512 11.1166 113.936 11.1166C112.718 11.1166 111.711 11.5157 110.912 12.314C110.114 13.1122 109.715 14.1998 109.715 15.5767C109.715 16.9537 110.114 18.0413 110.912 18.8395C111.711 19.6378 112.718 20.0369 113.936 20.0369C115.532 20.0369 116.74 19.2985 117.558 17.8218L121.18 19.7974C120.601 21.0746 119.673 22.0724 118.396 22.7908C117.139 23.5092 115.662 23.8684 113.966 23.8684Z" fill="#F4F4F4"/>
<path d="M140.008 7.52456V23.6289H135.548V21.773C134.39 23.1699 132.714 23.8684 130.519 23.8684C129.002 23.8684 127.625 23.5291 126.388 22.8506C125.17 22.1721 124.213 21.2043 123.514 19.9471C122.816 18.6899 122.466 17.2331 122.466 15.5767C122.466 13.9204 122.816 12.4636 123.514 11.2064C124.213 9.9492 125.17 8.98134 126.388 8.30284C127.625 7.62434 129.002 7.28509 130.519 7.28509C132.574 7.28509 134.181 7.93366 135.338 9.23078V7.52456H140.008ZM131.327 20.0369C132.504 20.0369 133.482 19.6378 134.26 18.8395C135.039 18.0213 135.428 16.9337 135.428 15.5767C135.428 14.2197 135.039 13.1421 134.26 12.3439C133.482 11.5257 132.504 11.1166 131.327 11.1166C130.129 11.1166 129.142 11.5257 128.363 12.3439C127.585 13.1421 127.196 14.2197 127.196 15.5767C127.196 16.9337 127.585 18.0213 128.363 18.8395C129.142 19.6378 130.129 20.0369 131.327 20.0369Z" fill="#F4F4F4"/>
<path d="M164.955 7.28509C166.971 7.28509 168.567 7.88377 169.745 9.08112C170.942 10.2585 171.541 12.0346 171.541 14.4093V23.6289H166.871V15.1277C166.871 13.8506 166.602 12.9027 166.063 12.284C165.544 11.6454 164.796 11.3261 163.818 11.3261C162.72 11.3261 161.852 11.6854 161.214 12.4038C160.575 13.1022 160.256 14.1499 160.256 15.5468V23.6289H155.586V15.1277C155.586 12.5933 154.568 11.3261 152.533 11.3261C151.455 11.3261 150.597 11.6854 149.958 12.4038C149.32 13.1022 149.001 14.1499 149.001 15.5468V23.6289H144.331V7.52456H148.791V9.38045C149.39 8.70196 150.118 8.1831 150.976 7.8239C151.854 7.46469 152.812 7.28509 153.85 7.28509C154.987 7.28509 156.015 7.51458 156.933 7.97357C157.851 8.4126 158.589 9.06116 159.148 9.91926C159.807 9.08112 160.635 8.43255 161.633 7.97357C162.65 7.51458 163.758 7.28509 164.955 7.28509Z" fill="#F4F4F4"/>
<path d="M185.245 7.28509C186.742 7.28509 188.099 7.63432 189.316 8.33277C190.553 9.01127 191.521 9.97913 192.22 11.2363C192.918 12.4736 193.267 13.9204 193.267 15.5767C193.267 17.2331 192.918 18.6899 192.22 19.9471C191.521 21.1843 190.553 22.1522 189.316 22.8506C188.099 23.5291 186.742 23.8684 185.245 23.8684C183.19 23.8684 181.573 23.2198 180.396 21.9227V34.5402H175.726V7.52456H180.186V9.38045C181.344 7.98355 183.03 7.28509 185.245 7.28509ZM184.437 20.0369C185.634 20.0369 186.612 19.6378 187.371 18.8395C188.149 18.0213 188.538 16.9337 188.538 15.5767C188.538 14.2197 188.149 13.1421 187.371 12.3439C186.612 11.5257 185.634 11.1166 184.437 11.1166C183.24 11.1166 182.252 11.5257 181.474 12.3439C180.715 13.1421 180.336 14.2197 180.336 15.5767C180.336 16.9337 180.715 18.0213 181.474 18.8395C182.252 19.6378 183.24 20.0369 184.437 20.0369Z" fill="#F4F4F4"/>
<mask id="path-2-inside-1_30_73" fill="white">
<path d="M94.3035 1.49072H98.9806V6.16787H94.3035V1.49072Z"/>
</mask>
<path d="M94.3035 1.49072V-3.50928H89.3035V1.49072H94.3035ZM98.9806 1.49072H103.981V-3.50928H98.9806V1.49072ZM98.9806 6.16787V11.1679H103.981V6.16787H98.9806ZM94.3035 6.16787H89.3035V11.1679H94.3035V6.16787ZM94.3035 6.49072H98.9806V-3.50928H94.3035V6.49072ZM93.9806 1.49072V6.16787H103.981V1.49072H93.9806ZM98.9806 1.16787H94.3035V11.1679H98.9806V1.16787ZM99.3035 6.16787V1.49072H89.3035V6.16787H99.3035Z" fill="#F4F4F4" mask="url(#path-2-inside-1_30_73)"/>
<path d="M14.7829 13.0271C15.8873 12.0993 17.0041 12.2 18.1331 13.329L20.0917 15.2876C20.6709 15.8668 21.1815 16.1515 21.6232 16.1417C22.0749 16.1319 22.6001 15.8276 23.199 15.2287L23.5229 14.9047L25.0839 16.4657L24.3182 17.2315C23.199 18.3507 22.1657 18.9422 21.2183 19.006C20.2758 19.0649 19.3088 18.5986 18.3172 17.607L16.6605 15.9503C16.0861 15.3759 15.5977 15.0691 15.1952 15.0299C14.7976 14.9857 14.3656 15.1968 13.8993 15.6631L11.9186 13.6824C12.3849 13.2161 12.5862 12.699 12.542 12.3014C12.4978 11.894 12.1959 11.4857 11.6167 10.9065L10.2103 9.50013C9.24329 8.5331 8.79414 7.58325 8.86286 6.65058C8.93159 5.71792 9.528 4.68953 10.6521 3.56541L11.4179 2.79964L12.9789 4.36064L12.6549 4.68462C12.0511 5.2884 11.7468 5.81364 11.7419 6.26034C11.732 6.70213 12.0168 7.21264 12.596 7.79188L14.3779 9.57376C14.9178 10.1137 15.2026 10.6439 15.232 11.1642C15.2615 11.6845 15.0381 12.2319 14.562 12.8062L14.7829 13.0271Z" fill="#F4F4F4"/>
<path d="M14.4941 14.7067C15.4218 15.8112 15.3212 16.9279 14.1922 18.057L12.2336 20.0156C11.6543 20.5948 11.3696 21.1053 11.3794 21.5471C11.3892 21.9987 11.6936 22.524 12.2925 23.1228L12.6164 23.4468L11.0555 25.0078L10.2897 24.242C9.17048 23.1228 8.57897 22.0895 8.51516 21.1421C8.45625 20.1996 8.92259 19.2326 9.91416 18.241L11.5709 16.5843C12.1452 16.01 12.452 15.5216 12.4913 15.1191C12.5355 14.7214 12.3244 14.2895 11.858 13.8231L13.8387 11.8424C14.3051 12.3088 14.737 12.5199 15.1347 12.4757C15.5421 12.4315 16.0354 12.1198 16.6146 11.5405L18.021 10.1342C18.988 9.16715 19.9379 8.718 20.8706 8.78672C21.8032 8.85544 22.8316 9.45186 23.9557 10.576L24.7215 11.3417L23.1605 12.9027L22.8365 12.5788C22.2328 11.975 21.7075 11.6706 21.2608 11.6657C20.819 11.6559 20.3085 11.9406 19.7293 12.5199L17.9474 14.3017C17.4074 14.8417 16.8773 15.1264 16.3569 15.1559C15.8366 15.1853 15.2893 14.962 14.7149 14.4858L14.4941 14.7067Z" fill="#F4F4F4"/>
<path d="M13.0443 14.6478C11.9399 15.5756 10.8231 15.4749 9.69408 14.3459L7.73548 12.3873C7.15624 11.8081 6.64573 11.5234 6.20394 11.5332C5.75233 11.543 5.22709 11.8473 4.62822 12.4462L4.30424 12.7702L2.74325 11.2092L3.50902 10.4434C4.62822 9.32423 5.66152 8.73273 6.60891 8.66891C7.5514 8.61001 8.51843 9.07634 9.51001 10.0679L11.1667 11.7246C11.741 12.299 12.2295 12.6058 12.632 12.645C13.0296 12.6892 13.4616 12.4781 13.9279 12.0118L15.9086 13.9925C15.4423 14.4588 15.2312 14.8908 15.2754 15.2884C15.3196 15.6958 15.6313 16.1892 16.2105 16.7684L17.6169 18.1748C18.5839 19.1418 19.033 20.0917 18.9643 21.0243C18.8956 21.957 18.2992 22.9854 17.1751 24.1095L16.4093 24.8753L14.8483 23.3143L15.1723 22.9903C15.7761 22.3865 16.0804 21.8613 16.0853 21.4146C16.0951 20.9728 15.8104 20.4623 15.2312 19.883L13.4493 18.1011C12.9093 17.5612 12.6246 17.031 12.5952 16.5107C12.5657 15.9904 12.7891 15.443 13.2652 14.8687L13.0443 14.6478Z" fill="#F4F4F4"/>
<path d="M12.8733 12.9682C12.3751 11.6649 12.0462 10.747 13.1752 9.61794L15.1338 7.65934C15.7131 7.0801 15.9978 6.56959 15.988 6.1278C15.9781 5.67619 15.6738 5.15095 15.0749 4.55208L14.751 4.2281L16.3119 2.66711L17.0777 3.43288C18.1969 4.55208 18.7884 5.58538 18.8522 6.53277C18.9111 7.47526 18.4448 8.44229 17.4532 9.43387L15.7965 11.0906C15.2222 11.6649 14.9154 12.1533 14.8761 12.5559C14.8319 12.9535 15.043 13.3854 15.5094 13.8518L13.5287 15.8325C13.0623 15.3661 12.6304 15.1551 12.2327 15.1992C11.8253 15.2434 11.332 15.5551 10.7527 16.1344L9.34638 17.5407C8.37935 18.5078 7.4295 18.9569 6.49683 18.8882C5.56416 18.8195 4.53577 18.223 3.41166 17.0989L2.64589 16.3332L4.20688 14.7722L4.53086 15.0961C5.13464 15.6999 5.65988 16.0043 6.10658 16.0092C6.54837 16.019 7.05889 15.7343 7.63812 15.1551L9.42001 13.3732C9.95998 12.8332 10.4901 12.5485 11.0105 12.519C11.5308 12.4896 12.0781 12.7129 12.6524 13.1891L12.8733 12.9682Z" fill="#F4F4F4"/>
<path d="M117.889 34.0461V28.5391H115.658V27.6953H121.074V28.5391H118.842V34.0461H117.889Z" fill="#F4F4F4"/>
<path d="M123.151 34.1368C122.794 34.1368 122.479 34.0612 122.207 33.91C121.935 33.7588 121.723 33.5471 121.572 33.2749C121.421 32.9967 121.345 32.6791 121.345 32.3223V29.4282H122.243V32.1681C122.243 32.531 122.346 32.8183 122.552 33.03C122.764 33.2416 123.045 33.3475 123.396 33.3475C123.644 33.3475 123.864 33.2961 124.058 33.1933C124.251 33.0844 124.409 32.9332 124.53 32.7396V29.4282H125.437V34.0461H124.53V33.5743C124.173 33.9493 123.713 34.1368 123.151 34.1368Z" fill="#F4F4F4"/>
<path d="M126.511 34.0461V29.4282H127.418V30.0179C127.563 29.8001 127.742 29.6308 127.954 29.5098C128.171 29.3828 128.416 29.3193 128.688 29.3193C128.876 29.3254 129.03 29.3526 129.151 29.401V30.2175C129.066 30.1812 128.979 30.157 128.888 30.1449C128.797 30.1268 128.707 30.1177 128.616 30.1177C128.35 30.1177 128.114 30.1903 127.908 30.3354C127.703 30.4745 127.539 30.6802 127.418 30.9524V34.0461H126.511Z" fill="#F4F4F4"/>
<path d="M129.878 34.0461V27.6953L130.785 27.5229V31.4513L133.026 29.4282H134.087L131.701 31.5874L134.214 34.0461H133.017L130.785 31.8777V34.0461H129.878Z" fill="#F4F4F4"/>
<path d="M134.635 34.0461V29.4282H135.543V29.8727C135.887 29.5159 136.32 29.3374 136.84 29.3374C137.155 29.3374 137.433 29.407 137.675 29.5461C137.923 29.6852 138.119 29.8727 138.264 30.1086C138.458 29.8546 138.685 29.6641 138.945 29.537C139.205 29.404 139.498 29.3374 139.825 29.3374C140.17 29.3374 140.469 29.4131 140.723 29.5643C140.983 29.7155 141.186 29.9272 141.331 30.1993C141.482 30.4715 141.558 30.786 141.558 31.1429V34.0461H140.651V31.2971C140.651 30.9342 140.554 30.6499 140.36 30.4443C140.173 30.2326 139.916 30.1268 139.589 30.1268C139.365 30.1268 139.163 30.1782 138.981 30.281C138.8 30.3838 138.642 30.5411 138.509 30.7528C138.522 30.8132 138.531 30.8767 138.537 30.9433C138.543 31.0098 138.546 31.0763 138.546 31.1429V34.0461H137.648V31.2971C137.648 30.9342 137.551 30.6499 137.357 30.4443C137.17 30.2326 136.913 30.1268 136.586 30.1268C136.368 30.1268 136.172 30.1751 135.996 30.2719C135.821 30.3626 135.67 30.5018 135.543 30.6892V34.0461H134.635Z" fill="#F4F4F4"/>
<path d="M144.814 34.1277C144.361 34.1277 143.949 34.0219 143.58 33.8102C143.217 33.5985 142.927 33.3112 142.709 32.9483C142.498 32.5854 142.392 32.1802 142.392 31.7326C142.392 31.2911 142.495 30.8919 142.7 30.535C142.906 30.1721 143.184 29.8848 143.535 29.6731C143.886 29.4554 144.276 29.3465 144.705 29.3465C145.135 29.3465 145.516 29.4554 145.848 29.6731C146.181 29.8848 146.444 30.1751 146.638 30.5441C146.837 30.907 146.937 31.3183 146.937 31.7779V32.032H143.299C143.347 32.286 143.441 32.5128 143.58 32.7124C143.725 32.912 143.907 33.0693 144.125 33.1842C144.348 33.2991 144.59 33.3566 144.85 33.3566C145.074 33.3566 145.289 33.3233 145.495 33.2568C145.706 33.1842 145.882 33.0814 146.021 32.9483L146.601 33.5199C146.329 33.7255 146.048 33.8797 145.758 33.9826C145.473 34.0793 145.159 34.1277 144.814 34.1277ZM143.308 31.3515H146.039C146.003 31.1096 145.918 30.8979 145.785 30.7165C145.658 30.529 145.498 30.3838 145.304 30.281C145.117 30.1721 144.911 30.1177 144.687 30.1177C144.457 30.1177 144.246 30.1691 144.052 30.2719C143.859 30.3747 143.695 30.5199 143.562 30.7074C143.435 30.8888 143.35 31.1036 143.308 31.3515Z" fill="#F4F4F4"/>
<path d="M147.801 34.0461V29.4282H148.708V29.8999C149.065 29.5249 149.528 29.3374 150.097 29.3374C150.453 29.3374 150.765 29.4131 151.031 29.5643C151.303 29.7155 151.515 29.9272 151.666 30.1993C151.823 30.4715 151.902 30.786 151.902 31.1429V34.0461H150.995V31.2971C150.995 30.9342 150.892 30.6499 150.686 30.4443C150.487 30.2326 150.205 30.1268 149.843 30.1268C149.601 30.1268 149.383 30.1782 149.189 30.281C148.996 30.3838 148.835 30.532 148.708 30.7255V34.0461H147.801Z" fill="#F4F4F4"/>
<path d="M152.949 34.0461V29.4282H153.856V34.0461H152.949ZM153.402 28.6842C153.251 28.6842 153.121 28.6298 153.012 28.5209C152.903 28.406 152.849 28.2729 152.849 28.1217C152.849 27.9645 152.903 27.8344 153.012 27.7316C153.121 27.6227 153.251 27.5683 153.402 27.5683C153.56 27.5683 153.693 27.6227 153.802 27.7316C153.91 27.8344 153.965 27.9645 153.965 28.1217C153.965 28.2729 153.91 28.406 153.802 28.5209C153.693 28.6298 153.56 28.6842 153.402 28.6842Z" fill="#F4F4F4"/>
<path d="M156.512 34.1368C156.113 34.1368 155.738 34.0793 155.387 33.9644C155.042 33.8435 154.743 33.6741 154.489 33.4564L154.988 32.8576C155.224 33.0451 155.466 33.1902 155.714 33.2931C155.968 33.3898 156.225 33.4382 156.485 33.4382C156.812 33.4382 157.078 33.3747 157.283 33.2477C157.489 33.1207 157.592 32.9543 157.592 32.7487C157.592 32.5794 157.531 32.4463 157.41 32.3495C157.289 32.2527 157.102 32.1862 156.848 32.1499L156.013 32.032C155.554 31.9654 155.209 31.8233 154.979 31.6056C154.749 31.3878 154.634 31.0975 154.634 30.7346C154.634 30.4564 154.71 30.2145 154.861 30.0088C155.012 29.7971 155.224 29.6338 155.496 29.5189C155.768 29.3979 156.086 29.3374 156.449 29.3374C156.781 29.3374 157.102 29.3858 157.41 29.4826C157.719 29.5794 158.015 29.7306 158.299 29.9362L157.837 30.535C157.583 30.3657 157.335 30.2417 157.093 30.163C156.857 30.0844 156.618 30.0451 156.376 30.0451C156.098 30.0451 155.874 30.1056 155.705 30.2266C155.535 30.3415 155.451 30.4927 155.451 30.6802C155.451 30.8495 155.508 30.9826 155.623 31.0794C155.744 31.1701 155.941 31.2336 156.213 31.2699L157.047 31.3878C157.507 31.4544 157.855 31.5965 158.091 31.8142C158.327 32.0259 158.445 32.3132 158.445 32.6761C158.445 32.9543 158.36 33.2054 158.191 33.4291C158.021 33.6469 157.791 33.8193 157.501 33.9463C157.211 34.0733 156.881 34.1368 156.512 34.1368Z" fill="#F4F4F4"/>
<path d="M161.031 34.1277C160.583 34.1277 160.242 34.0249 160.006 33.8193C159.77 33.6076 159.652 33.3021 159.652 32.9029V30.1903H158.672V29.4282H159.652V28.2487L160.55 28.031V29.4282H161.911V30.1903H160.55V32.6943C160.55 32.9302 160.602 33.0995 160.704 33.2023C160.813 33.2991 160.989 33.3475 161.231 33.3475C161.358 33.3475 161.47 33.3384 161.566 33.3203C161.669 33.3021 161.778 33.2749 161.893 33.2386V34.0007C161.772 34.043 161.63 34.0733 161.467 34.0914C161.309 34.1156 161.164 34.1277 161.031 34.1277Z" fill="#F4F4F4"/>
<path d="M164.04 34.1277C163.707 34.1277 163.414 34.0703 163.16 33.9553C162.906 33.8344 162.706 33.668 162.561 33.4564C162.416 33.2447 162.344 32.9997 162.344 32.7215C162.344 32.286 162.51 31.9443 162.843 31.6963C163.175 31.4423 163.632 31.3153 164.212 31.3153C164.666 31.3153 165.086 31.403 165.474 31.5784V31.0884C165.474 30.7558 165.377 30.5078 165.183 30.3445C164.996 30.1812 164.718 30.0995 164.349 30.0995C164.137 30.0995 163.916 30.1328 163.686 30.1993C163.456 30.2598 163.199 30.3566 162.915 30.4897L162.579 29.8092C162.93 29.6459 163.257 29.528 163.559 29.4554C163.862 29.3768 164.167 29.3374 164.476 29.3374C165.074 29.3374 165.537 29.4796 165.864 29.7639C166.196 30.0481 166.363 30.4534 166.363 30.9796V34.0461H165.474V33.6469C165.268 33.8102 165.047 33.9312 164.811 34.0098C164.575 34.0884 164.318 34.1277 164.04 34.1277ZM163.215 32.7033C163.215 32.9271 163.308 33.1086 163.496 33.2477C163.689 33.3808 163.94 33.4473 164.249 33.4473C164.491 33.4473 164.711 33.414 164.911 33.3475C165.117 33.2749 165.304 33.163 165.474 33.0118V32.2316C165.298 32.1288 165.114 32.0562 164.92 32.0138C164.733 31.9654 164.521 31.9413 164.285 31.9413C163.952 31.9413 163.689 32.0108 163.496 32.1499C163.308 32.283 163.215 32.4675 163.215 32.7033Z" fill="#F4F4F4"/>
<path d="M167.408 34.0461V29.4282H168.315V29.8999C168.672 29.5249 169.135 29.3374 169.703 29.3374C170.06 29.3374 170.372 29.4131 170.638 29.5643C170.91 29.7155 171.122 29.9272 171.273 30.1993C171.43 30.4715 171.509 30.786 171.509 31.1429V34.0461H170.602V31.2971C170.602 30.9342 170.499 30.6499 170.293 30.4443C170.094 30.2326 169.812 30.1268 169.449 30.1268C169.207 30.1268 168.99 30.1782 168.796 30.281C168.603 30.3838 168.442 30.532 168.315 30.7255V34.0461H167.408Z" fill="#F4F4F4"/>
</svg>
