<svg width="229" height="261" viewBox="0 0 229 261" fill="none" xmlns="http://www.w3.org/2000/svg">
<mask id="path-1-outside-1_60_80" maskUnits="userSpaceOnUse" x="-29.5132" y="-28.4142" width="321.026" height="321.026" fill="black">
<rect fill="white" x="-29.5132" y="-28.4142" width="321.026" height="321.026"/>
<path d="M142.348 121.43C155.083 110.733 167.959 111.893 180.977 124.911L203.56 147.494C210.238 154.173 216.124 157.455 221.218 157.342C226.425 157.229 232.482 153.72 239.387 146.815L243.122 143.079L261.12 161.078L252.291 169.907C239.387 182.811 227.473 189.632 216.549 190.367C205.682 191.047 194.532 185.67 183.099 174.237L163.997 155.135C157.375 148.513 151.743 144.975 147.102 144.522C142.518 144.013 137.537 146.447 132.16 151.824L109.323 128.986C114.7 123.609 117.02 117.647 116.511 113.063C116.001 108.365 112.521 103.658 105.842 96.9795L89.6263 80.764C78.4764 69.614 73.2976 58.6622 74.09 47.9084C74.8824 37.1547 81.7591 25.2972 94.7202 12.3361L103.55 3.50672L121.548 21.5051L117.812 25.2406C110.851 32.2023 107.342 38.2583 107.285 43.4088C107.172 48.5027 110.455 54.389 117.133 61.0676L137.679 81.613C143.905 87.8388 147.187 93.9515 147.527 99.951C147.866 105.95 145.291 112.261 139.801 118.883L142.348 121.43Z"/>
<path d="M139.018 140.796C149.715 153.531 148.555 166.407 135.537 179.425L112.954 202.008C106.276 208.687 102.993 214.573 103.106 219.667C103.219 224.874 106.729 230.93 113.634 237.835L117.369 241.57L99.3707 259.569L90.5413 250.739C77.6368 237.835 70.8167 225.921 70.0809 214.997C69.4017 204.13 74.7786 192.98 86.2115 181.547L105.314 162.445C111.936 155.823 115.473 150.192 115.926 145.551C116.435 140.966 114.002 135.985 108.625 130.609L131.462 107.771C136.839 113.148 141.82 115.582 146.404 115.072C151.102 114.563 156.79 110.969 163.469 104.29L179.684 88.0746C190.834 76.9247 201.786 71.7459 212.54 72.5383C223.294 73.3307 235.151 80.2074 248.112 93.1685L256.942 101.998L238.943 119.996L235.208 116.261C228.246 109.299 222.19 105.79 217.039 105.733C211.946 105.62 206.059 108.903 199.381 115.582L178.835 136.127C172.609 142.353 166.497 145.636 160.497 145.975C154.498 146.315 148.187 143.739 141.565 138.249L139.018 140.796Z"/>
<path d="M122.303 140.117C109.568 150.814 96.6917 149.654 83.674 136.636L61.0911 114.053C54.4125 107.375 48.5262 104.092 43.4323 104.205C38.2253 104.318 32.1692 107.828 25.2642 114.733L21.5286 118.468L3.53024 100.47L12.3596 91.6404C25.2641 78.7359 37.1782 71.9157 48.1017 71.1799C58.9687 70.5007 70.1187 75.8776 81.5516 87.3106L100.654 106.413C107.276 113.035 112.907 116.572 117.548 117.025C122.133 117.534 127.114 115.101 132.49 109.724L155.328 132.561C149.951 137.938 147.517 142.919 148.027 147.503C148.536 152.201 152.13 157.889 158.809 164.568L175.024 180.783C186.174 191.933 191.353 202.885 190.561 213.639C189.768 224.393 182.892 236.25 169.931 249.211L161.101 258.041L143.103 240.042L146.838 236.307C153.8 229.345 157.309 223.289 157.366 218.139C157.479 213.045 154.196 207.158 147.517 200.48L126.972 179.934C120.746 173.709 117.463 167.596 117.124 161.596C116.784 155.597 119.36 149.286 124.85 142.664L122.303 140.117Z"/>
<path d="M120.331 120.751C114.586 105.724 110.794 95.1401 123.812 82.1224L146.395 59.5395C153.074 52.8608 156.356 46.9746 156.243 41.8807C156.13 36.6736 152.621 30.6175 145.716 23.7125L141.98 19.977L159.979 1.97857L168.808 10.808C181.712 23.7125 188.533 35.6265 189.268 46.5501C189.948 57.417 184.571 68.567 173.138 79.9999L154.036 99.102C147.414 105.724 143.876 111.356 143.423 115.997C142.914 120.581 145.348 125.562 150.725 130.939L127.887 153.776C122.51 148.399 117.53 145.966 112.945 146.475C108.247 146.985 102.559 150.579 95.8805 157.257L79.665 173.473C68.515 184.623 57.5632 189.801 46.8094 189.009C36.0556 188.217 24.1982 181.34 11.2371 168.379L2.4077 159.549L20.4061 141.551L24.1416 145.287C31.1033 152.248 37.1593 155.757 42.3098 155.814C47.4037 155.927 53.29 152.644 59.9686 145.966L80.514 125.42C86.7398 119.195 92.8525 115.912 98.8519 115.572C104.851 115.233 111.162 117.808 117.784 123.298L120.331 120.751Z"/>
</mask>
<path d="M142.348 121.43C155.083 110.733 167.959 111.893 180.977 124.911L203.56 147.494C210.238 154.173 216.124 157.455 221.218 157.342C226.425 157.229 232.482 153.72 239.387 146.815L243.122 143.079L261.12 161.078L252.291 169.907C239.387 182.811 227.473 189.632 216.549 190.367C205.682 191.047 194.532 185.67 183.099 174.237L163.997 155.135C157.375 148.513 151.743 144.975 147.102 144.522C142.518 144.013 137.537 146.447 132.16 151.824L109.323 128.986C114.7 123.609 117.02 117.647 116.511 113.063C116.001 108.365 112.521 103.658 105.842 96.9795L89.6263 80.764C78.4764 69.614 73.2976 58.6622 74.09 47.9084C74.8824 37.1547 81.7591 25.2972 94.7202 12.3361L103.55 3.50672L121.548 21.5051L117.812 25.2406C110.851 32.2023 107.342 38.2583 107.285 43.4088C107.172 48.5027 110.455 54.389 117.133 61.0676L137.679 81.613C143.905 87.8388 147.187 93.9515 147.527 99.951C147.866 105.95 145.291 112.261 139.801 118.883L142.348 121.43Z" stroke="#F4F4F4" stroke-opacity="0.1" stroke-width="2" mask="url(#path-1-outside-1_60_80)"/>
<path d="M139.018 140.796C149.715 153.531 148.555 166.407 135.537 179.425L112.954 202.008C106.276 208.687 102.993 214.573 103.106 219.667C103.219 224.874 106.729 230.93 113.634 237.835L117.369 241.57L99.3707 259.569L90.5413 250.739C77.6368 237.835 70.8167 225.921 70.0809 214.997C69.4017 204.13 74.7786 192.98 86.2115 181.547L105.314 162.445C111.936 155.823 115.473 150.192 115.926 145.551C116.435 140.966 114.002 135.985 108.625 130.609L131.462 107.771C136.839 113.148 141.82 115.582 146.404 115.072C151.102 114.563 156.79 110.969 163.469 104.29L179.684 88.0746C190.834 76.9247 201.786 71.7459 212.54 72.5383C223.294 73.3307 235.151 80.2074 248.112 93.1685L256.942 101.998L238.943 119.996L235.208 116.261C228.246 109.299 222.19 105.79 217.039 105.733C211.946 105.62 206.059 108.903 199.381 115.582L178.835 136.127C172.609 142.353 166.497 145.636 160.497 145.975C154.498 146.315 148.187 143.739 141.565 138.249L139.018 140.796Z" stroke="#F4F4F4" stroke-opacity="0.1" stroke-width="2" mask="url(#path-1-outside-1_60_80)"/>
<path d="M122.303 140.117C109.568 150.814 96.6917 149.654 83.674 136.636L61.0911 114.053C54.4125 107.375 48.5262 104.092 43.4323 104.205C38.2253 104.318 32.1692 107.828 25.2642 114.733L21.5286 118.468L3.53024 100.47L12.3596 91.6404C25.2641 78.7359 37.1782 71.9157 48.1017 71.1799C58.9687 70.5007 70.1187 75.8776 81.5516 87.3106L100.654 106.413C107.276 113.035 112.907 116.572 117.548 117.025C122.133 117.534 127.114 115.101 132.49 109.724L155.328 132.561C149.951 137.938 147.517 142.919 148.027 147.503C148.536 152.201 152.13 157.889 158.809 164.568L175.024 180.783C186.174 191.933 191.353 202.885 190.561 213.639C189.768 224.393 182.892 236.25 169.931 249.211L161.101 258.041L143.103 240.042L146.838 236.307C153.8 229.345 157.309 223.289 157.366 218.139C157.479 213.045 154.196 207.158 147.517 200.48L126.972 179.934C120.746 173.709 117.463 167.596 117.124 161.596C116.784 155.597 119.36 149.286 124.85 142.664L122.303 140.117Z" stroke="#F4F4F4" stroke-opacity="0.1" stroke-width="2" mask="url(#path-1-outside-1_60_80)"/>
<path d="M120.331 120.751C114.586 105.724 110.794 95.1401 123.812 82.1224L146.395 59.5395C153.074 52.8608 156.356 46.9746 156.243 41.8807C156.13 36.6736 152.621 30.6175 145.716 23.7125L141.98 19.977L159.979 1.97857L168.808 10.808C181.712 23.7125 188.533 35.6265 189.268 46.5501C189.948 57.417 184.571 68.567 173.138 79.9999L154.036 99.102C147.414 105.724 143.876 111.356 143.423 115.997C142.914 120.581 145.348 125.562 150.725 130.939L127.887 153.776C122.51 148.399 117.53 145.966 112.945 146.475C108.247 146.985 102.559 150.579 95.8805 157.257L79.665 173.473C68.515 184.623 57.5632 189.801 46.8094 189.009C36.0556 188.217 24.1982 181.34 11.2371 168.379L2.4077 159.549L20.4061 141.551L24.1416 145.287C31.1033 152.248 37.1593 155.757 42.3098 155.814C47.4037 155.927 53.29 152.644 59.9686 145.966L80.514 125.42C86.7398 119.195 92.8525 115.912 98.8519 115.572C104.851 115.233 111.162 117.808 117.784 123.298L120.331 120.751Z" stroke="#F4F4F4" stroke-opacity="0.1" stroke-width="2" mask="url(#path-1-outside-1_60_80)"/>
</svg>
