<svg width="857" height="59" viewBox="0 0 857 59" fill="none" xmlns="http://www.w3.org/2000/svg">
<path opacity="0.4" d="M855.354 44.307C856.441 43.4559 856.632 41.8846 855.781 40.7974L841.912 23.0804C841.061 21.9932 839.49 21.8017 838.402 22.6528C837.315 23.5039 837.124 25.0752 837.975 26.1624L850.303 41.9109L834.555 54.2391C833.467 55.0902 833.276 56.6615 834.127 57.7487C834.978 58.8359 836.55 59.0273 837.637 58.1763L855.354 44.307ZM0.699538 18.4739C281.884 -1.06113 462.565 -2.80387 853.51 44.8201L854.115 39.8568C462.84 -7.80732 281.84 -6.07014 0.353005 13.4859L0.699538 18.4739Z" fill="#1D1445"/>
</svg>
