<svg width="257" height="256" viewBox="0 0 257 256" fill="none" xmlns="http://www.w3.org/2000/svg">
<mask id="path-1-outside-1_87_371" maskUnits="userSpaceOnUse" x="-28.9777" y="-27.4142" width="313.955" height="313.955" fill="black">
<rect fill="white" x="-28.9777" y="-27.4142" width="313.955" height="313.955"/>
<path d="M139.096 119.132C151.548 108.672 164.138 109.807 176.866 122.535L198.947 144.616C205.477 151.146 211.233 154.356 216.214 154.246C221.305 154.135 227.226 150.704 233.978 143.952L237.63 140.3L255.229 157.898L246.596 166.531C233.978 179.149 222.329 185.818 211.648 186.537C201.022 187.201 190.12 181.944 178.941 170.765L160.264 152.087C153.789 145.612 148.282 142.154 143.745 141.711C139.262 141.213 134.392 143.592 129.134 148.85L106.804 126.52C112.062 121.262 114.331 115.433 113.833 110.95C113.335 106.357 109.931 101.755 103.401 95.2244L87.5457 79.3692C76.6436 68.4671 71.5799 57.7586 72.3546 47.2438C73.1294 36.729 79.8533 25.1351 92.5264 12.462L101.16 3.82879L118.758 21.4272L115.106 25.0797C108.299 31.8867 104.867 37.8082 104.812 42.8442C104.701 47.8249 107.911 53.5803 114.441 60.1106L134.53 80.1993C140.618 86.2868 143.828 92.2637 144.16 98.1298C144.492 103.996 141.974 110.166 136.606 116.641L139.096 119.132Z"/>
<path d="M135.84 138.068C146.299 150.519 145.165 163.109 132.436 175.838L110.355 197.919C103.825 204.449 100.615 210.205 100.726 215.185C100.837 220.277 104.268 226.198 111.02 232.95L114.672 236.602L97.0736 254.201L88.4404 245.567C75.8227 232.95 69.1541 221.3 68.4346 210.62C67.7706 199.994 73.028 189.092 84.2068 177.913L102.884 159.235C109.359 152.761 112.818 147.254 113.261 142.716C113.759 138.234 111.379 133.364 106.122 128.106L128.452 105.776C133.709 111.033 138.579 113.413 143.062 112.915C147.655 112.417 153.217 108.903 159.747 102.373L175.602 86.5174C186.505 75.6152 197.213 70.5515 207.728 71.3263C218.243 72.1011 229.837 78.825 242.51 91.4981L251.143 100.131L233.544 117.73L229.892 114.077C223.085 107.27 217.164 103.839 212.127 103.784C207.147 103.673 201.391 106.883 194.861 113.413L174.772 133.502C168.685 139.589 162.708 142.799 156.842 143.131C150.976 143.463 144.805 140.945 138.33 135.577L135.84 138.068Z"/>
<path d="M119.496 137.403C107.044 147.863 94.4542 146.728 81.7257 134L59.6447 111.919C53.1144 105.389 47.359 102.179 42.3783 102.29C37.2869 102.4 31.3654 105.831 24.6138 112.583L20.9613 116.236L3.3629 98.6371L11.9961 90.0039C24.6138 77.3862 36.2631 70.7176 46.9439 69.9981C57.5694 69.334 68.4716 74.5914 79.6504 85.7703L98.328 104.448C104.803 110.923 110.309 114.382 114.847 114.824C119.33 115.322 124.2 112.943 129.457 107.685L151.787 130.015C146.53 135.273 144.15 140.143 144.648 144.625C145.146 149.219 148.661 154.781 155.191 161.311L171.046 177.166C181.948 188.068 187.012 198.777 186.237 209.291C185.462 219.806 178.738 231.4 166.065 244.073L157.432 252.706L139.834 235.108L143.486 231.455C150.293 224.648 153.724 218.727 153.78 213.691C153.89 208.71 150.681 202.955 144.15 196.425L124.062 176.336C117.974 170.248 114.764 164.271 114.432 158.405C114.1 152.539 116.618 146.369 121.986 139.894L119.496 137.403Z"/>
<path d="M117.568 118.468C111.951 103.775 108.243 93.4258 120.972 80.6974L143.053 58.6164C149.583 52.0861 152.793 46.3307 152.682 41.35C152.571 36.2586 149.14 30.3371 142.389 23.5855L138.736 19.933L156.335 2.3346L164.968 10.9678C177.586 23.5855 184.254 35.2348 184.974 45.9156C185.638 56.5411 180.38 67.4433 169.201 78.6221L150.524 97.2997C144.049 103.775 140.59 109.281 140.147 113.819C139.649 118.302 142.029 123.172 147.286 128.429L124.956 150.759C119.699 145.502 114.829 143.122 110.346 143.62C105.753 144.118 100.191 147.632 93.6609 154.163L77.8057 170.018C66.9036 180.92 56.1951 185.984 45.6803 185.209C35.1655 184.434 23.5716 177.71 10.8985 165.037L2.2653 156.404L19.8637 138.805L23.5163 142.458C30.3232 149.265 36.2447 152.696 41.2807 152.751C46.2614 152.862 52.0168 149.652 58.5471 143.122L78.6359 123.033C84.7234 116.946 90.7002 113.736 96.5663 113.404C102.432 113.072 108.603 115.59 115.078 120.958L117.568 118.468Z"/>
</mask>
<path d="M139.096 119.132C151.548 108.672 164.138 109.807 176.866 122.535L198.947 144.616C205.477 151.146 211.233 154.356 216.214 154.246C221.305 154.135 227.226 150.704 233.978 143.952L237.63 140.3L255.229 157.898L246.596 166.531C233.978 179.149 222.329 185.818 211.648 186.537C201.022 187.201 190.12 181.944 178.941 170.765L160.264 152.087C153.789 145.612 148.282 142.154 143.745 141.711C139.262 141.213 134.392 143.592 129.134 148.85L106.804 126.52C112.062 121.262 114.331 115.433 113.833 110.95C113.335 106.357 109.931 101.755 103.401 95.2244L87.5457 79.3692C76.6436 68.4671 71.5799 57.7586 72.3546 47.2438C73.1294 36.729 79.8533 25.1351 92.5264 12.462L101.16 3.82879L118.758 21.4272L115.106 25.0797C108.299 31.8867 104.867 37.8082 104.812 42.8442C104.701 47.8249 107.911 53.5803 114.441 60.1106L134.53 80.1993C140.618 86.2868 143.828 92.2637 144.16 98.1298C144.492 103.996 141.974 110.166 136.606 116.641L139.096 119.132Z" stroke="white" stroke-opacity="0.1" stroke-width="2" mask="url(#path-1-outside-1_87_371)"/>
<path d="M135.84 138.068C146.299 150.519 145.165 163.109 132.436 175.838L110.355 197.919C103.825 204.449 100.615 210.205 100.726 215.185C100.837 220.277 104.268 226.198 111.02 232.95L114.672 236.602L97.0736 254.201L88.4404 245.567C75.8227 232.95 69.1541 221.3 68.4346 210.62C67.7706 199.994 73.028 189.092 84.2068 177.913L102.884 159.235C109.359 152.761 112.818 147.254 113.261 142.716C113.759 138.234 111.379 133.364 106.122 128.106L128.452 105.776C133.709 111.033 138.579 113.413 143.062 112.915C147.655 112.417 153.217 108.903 159.747 102.373L175.602 86.5174C186.505 75.6152 197.213 70.5515 207.728 71.3263C218.243 72.1011 229.837 78.825 242.51 91.4981L251.143 100.131L233.544 117.73L229.892 114.077C223.085 107.27 217.164 103.839 212.127 103.784C207.147 103.673 201.391 106.883 194.861 113.413L174.772 133.502C168.685 139.589 162.708 142.799 156.842 143.131C150.976 143.463 144.805 140.945 138.33 135.577L135.84 138.068Z" stroke="white" stroke-opacity="0.1" stroke-width="2" mask="url(#path-1-outside-1_87_371)"/>
<path d="M119.496 137.403C107.044 147.863 94.4542 146.728 81.7257 134L59.6447 111.919C53.1144 105.389 47.359 102.179 42.3783 102.29C37.2869 102.4 31.3654 105.831 24.6138 112.583L20.9613 116.236L3.3629 98.6371L11.9961 90.0039C24.6138 77.3862 36.2631 70.7176 46.9439 69.9981C57.5694 69.334 68.4716 74.5914 79.6504 85.7703L98.328 104.448C104.803 110.923 110.309 114.382 114.847 114.824C119.33 115.322 124.2 112.943 129.457 107.685L151.787 130.015C146.53 135.273 144.15 140.143 144.648 144.625C145.146 149.219 148.661 154.781 155.191 161.311L171.046 177.166C181.948 188.068 187.012 198.777 186.237 209.291C185.462 219.806 178.738 231.4 166.065 244.073L157.432 252.706L139.834 235.108L143.486 231.455C150.293 224.648 153.724 218.727 153.78 213.691C153.89 208.71 150.681 202.955 144.15 196.425L124.062 176.336C117.974 170.248 114.764 164.271 114.432 158.405C114.1 152.539 116.618 146.369 121.986 139.894L119.496 137.403Z" stroke="white" stroke-opacity="0.1" stroke-width="2" mask="url(#path-1-outside-1_87_371)"/>
<path d="M117.568 118.468C111.951 103.775 108.243 93.4258 120.972 80.6974L143.053 58.6164C149.583 52.0861 152.793 46.3307 152.682 41.35C152.571 36.2586 149.14 30.3371 142.389 23.5855L138.736 19.933L156.335 2.3346L164.968 10.9678C177.586 23.5855 184.254 35.2348 184.974 45.9156C185.638 56.5411 180.38 67.4433 169.201 78.6221L150.524 97.2997C144.049 103.775 140.59 109.281 140.147 113.819C139.649 118.302 142.029 123.172 147.286 128.429L124.956 150.759C119.699 145.502 114.829 143.122 110.346 143.62C105.753 144.118 100.191 147.632 93.6609 154.163L77.8057 170.018C66.9036 180.92 56.1951 185.984 45.6803 185.209C35.1655 184.434 23.5716 177.71 10.8985 165.037L2.2653 156.404L19.8637 138.805L23.5163 142.458C30.3232 149.265 36.2447 152.696 41.2807 152.751C46.2614 152.862 52.0168 149.652 58.5471 143.122L78.6359 123.033C84.7234 116.946 90.7002 113.736 96.5663 113.404C102.432 113.072 108.603 115.59 115.078 120.958L117.568 118.468Z" stroke="white" stroke-opacity="0.1" stroke-width="2" mask="url(#path-1-outside-1_87_371)"/>
</svg>
